<svg id="Object" xmlns="http://www.w3.org/2000/svg" viewBox="0 0 1122 1122"><defs><style>.cls-1{fill:#330;}.cls-2{fill:#616e7d;}.cls-3{fill:none;}.cls-4{fill:#aad4c8;}.cls-5{fill:#fff;}.cls-6{fill:#262424;}.cls-15,.cls-7{fill:#f0c83b;}.cls-7{opacity:0.65;}.cls-8{fill:#3d6d9d;}.cls-9{fill:#4f5d6e;}.cls-10{fill:#c1b6af;}.cls-11{fill:#fffff1;}.cls-12{fill:#0d121f;}.cls-13{fill:#222b3b;}.cls-14{fill:#a24135;}.cls-16{fill:#242326;}</style></defs><title>logo-2</title><rect class="cls-1" width="1122" height="1122"/><path class="cls-2" d="M800.64,718.84h49.63a9.26,9.26,0,0,0,9.26-9.28V582.75a9.26,9.26,0,0,0-9.26-9.27H805.54a179.36,179.36,0,0,0-22.31-35.16c1.65-3.88,22.31-52.33,37.64-82.54,6.25-3.68-68.91-42.11-130.63,15.17a294.94,294.94,0,0,0-112.11-21.66c-134.27,0-243.11,86-243.11,192.13,0,2.89.1,5.76.27,8.61-1.24,4.6-4.29,8.81-8.78,12.23A35.19,35.19,0,0,1,320,666a15.8,15.8,0,0,0,1.54-6.84,16.59,16.59,0,0,0-5.68-12.33,20.35,20.35,0,0,0-26.52,0,16.52,16.52,0,0,0-5.71,12.33,15.82,15.82,0,0,0,1.56,6.84,34.26,34.26,0,0,1-6.56-3.74c-6-4.57-9.43-10.56-9.43-17h-6.7c0,8.92,4.78,16.84,12.08,22.34s17.17,8.82,28,8.83,20.7-3.31,28-8.83a34,34,0,0,0,5.83-5.78c5.21,39,25.22,74.56,55.5,103.06l-9.32,94.23a10.22,10.22,0,0,0,7.34,10.84l33.46,9.66a10.24,10.24,0,0,0,11.93-5.13l32.05-62a301.75,301.75,0,0,0,215.4,2.47l30.79,59.57a10.23,10.23,0,0,0,11.92,5.13l33.44-9.66a10.2,10.2,0,0,0,7.34-10.84l-8.7-88A195.06,195.06,0,0,0,800.64,718.84ZM311.35,666.49a13.64,13.64,0,0,1-17.61,0,9.54,9.54,0,0,1,0-14.66,13.66,13.66,0,0,1,17.61,0,9.49,9.49,0,0,1,0,14.66Zm376.71-160-12.28,28.68a4.22,4.22,0,0,1-2.32,2.28,4.27,4.27,0,0,1-3.28,0l-14.33-6.13h-.06l-.17-.08-.94-.38c-.92-.36-2.34-.91-4.25-1.58-3.76-1.34-9.36-3.18-16.3-5a211.74,211.74,0,0,0-53.33-7.34c-19.79,0-39.92,3.45-55.19,7.1a256.8,256.8,0,0,0-26.49,7.66l-.09,0L484.44,537a4.28,4.28,0,0,1-5.49-2.52l-10.84-29.25a4.28,4.28,0,0,1,2.52-5.49l14.63-5.41a287.11,287.11,0,0,1,29.52-8.69c17.51-4.24,41-8.55,66-8.57a251.4,251.4,0,0,1,62.79,8.46,222.51,222.51,0,0,1,27.7,9.09l.18.07,14.33,6.12a4.25,4.25,0,0,1,2.3,2.34A4.31,4.31,0,0,1,688.06,506.47Z"/><path class="cls-3" d="M293.74,651.83a9.54,9.54,0,0,0,0,14.66,13.64,13.64,0,0,0,17.61,0,9.49,9.49,0,0,0,0-14.66,13.66,13.66,0,0,0-17.61,0Z"/><path class="cls-4" d="M666.11,501.78c-1.24-.48-3-1.16-5.23-2-4.46-1.6-10.84-3.7-18.71-5.79a243.42,243.42,0,0,0-61.36-8.38c-24,0-46.94,4.19-64,8.34a277.9,277.9,0,0,0-28.56,8.39l-10.63,3.93,7.88,21.24,10.62-3.94.09,0a264.9,264.9,0,0,1,27.46-8c15.72-3.74,36.4-7.33,57.16-7.33a220.19,220.19,0,0,1,55.54,7.63c7.18,1.91,13,3.83,16.94,5.23,2,.7,3.54,1.29,4.56,1.69l1,.42.14.06.16.08h0l10.39,4.44,8.9-20.82-10.4-4.45-.57-.22Z"/><path class="cls-5" d="M670.19,537.39a4.27,4.27,0,0,0,3.28,0,4.22,4.22,0,0,0,2.32-2.28l12.28-28.68a4.31,4.31,0,0,0,0-3.27,4.25,4.25,0,0,0-2.3-2.34l-14.33-6.12-.18-.07a222.51,222.51,0,0,0-27.7-9.09,251.4,251.4,0,0,0-62.79-8.46c-25,0-48.53,4.33-66,8.57a287.11,287.11,0,0,0-29.52,8.69l-14.63,5.41a4.28,4.28,0,0,0-2.52,5.49L479,534.52a4.28,4.28,0,0,0,5.49,2.52l14.6-5.41.09,0a256.8,256.8,0,0,1,26.49-7.66c15.27-3.65,35.4-7.1,55.19-7.1a211.74,211.74,0,0,1,53.33,7.34c6.94,1.85,12.54,3.69,16.3,5,1.91.67,3.33,1.21,4.25,1.58l.94.38.17.08h.06Zm-16.91-16.23c-3.95-1.41-9.76-3.32-16.94-5.23a220.19,220.19,0,0,0-55.54-7.63c-20.76,0-41.44,3.58-57.16,7.33a264.9,264.9,0,0,0-27.46,8l-.09,0-10.62,3.94-7.88-21.24,10.63-3.93A277.9,277.9,0,0,1,516.79,494c17.08-4.15,40-8.32,64-8.34A243.42,243.42,0,0,1,642.17,494c7.87,2.1,14.25,4.19,18.71,5.79,2.24.8,4,1.48,5.23,2l1.43.58.57.22,10.4,4.45-8.9,20.82-10.39-4.44h0l-.16-.08-.14-.06-1-.42C656.82,522.45,655.28,521.86,653.28,521.16Z"/><path class="cls-5" d="M743.61,568.55c14.86-4.67,30.91,4.29,35.86,20s-3.11,32.26-18,36.93-30.93-4.29-35.86-20S728.73,573.23,743.61,568.55Z"/><path class="cls-6" d="M748.49,573.84c11.62-3.64,24.17,3.36,28,15.65s-2.43,25.22-14.06,28.88-24.18-3.36-28-15.66S736.86,577.49,748.49,573.84Z"/><path class="cls-7" d="M781,896c0,8.84-103.18,16-216.94,16S369,904.84,369,896s81.29-16,195.06-16S781,887.16,781,896Z"/><path class="cls-2" d="M551.27,334.79A83.4,83.4,0,1,1,495,438.44,83.41,83.41,0,0,1,551.27,334.79Z"/><path class="cls-4" d="M555.54,349.23a68.34,68.34,0,1,1-46.12,84.93A68.35,68.35,0,0,1,555.54,349.23Z"/><path class="cls-8" d="M588,376.56q-15-4.49-24.67-.74T551,388.4A18.55,18.55,0,0,0,553,404q4.45,7.35,17.4,14.16t16,10.18a7.79,7.79,0,0,1,1.67,8q-3.12,10.41-18.46,5.81-16.38-4.91-14.55-17.9l-17.46-3.73q-2.79,25,28.11,34.22a44.64,44.64,0,0,0,24.5.77q11.72-3.06,15-14.15,2.85-9.49-1.56-17.27t-16.83-14.27q-12.44-6.47-16.2-9.79c-2.52-2.2-3.32-4.77-2.44-7.72q2.16-7.21,15.72-3.16T595.78,401l17.43,4.56Q617.67,385.45,588,376.56Z"/><polygon class="cls-8" points="580.12 375.94 596.35 380.81 600.79 366.04 584.54 361.17 580.12 375.94"/><rect class="cls-8" x="556.31" y="450.66" width="15.42" height="16.96" transform="translate(-37.87 867.37) rotate(-73.29)"/><path class="cls-5" d="M632.95,339.6c0,6.72,2.53,16.14,5.39,19s12,4.73,18.34,4.73c-6.54,0-16.21,2.6-18.67,5.06s-5.06,12.13-5.06,18.68c0-6.55-2.89-16.51-5.05-18.68s-12.12-5.06-18.68-5.06c6.55,0,16.19-2.56,18.68-5.05S632.95,346.16,632.95,339.6Z"/><path class="cls-5" d="M617.11,373.84c0,2.39.9,5.75,1.92,6.77s4.26,1.69,6.53,1.69c-2.33,0-5.78.92-6.65,1.8s-1.8,4.31-1.8,6.65c0-2.33-1-5.88-1.8-6.65s-4.32-1.8-6.64-1.8c2.33,0,5.76-.91,6.64-1.8S617.11,376.17,617.11,373.84Z"/><path class="cls-5" d="M648,385.16c0,3.32,1.25,8,2.66,9.38s5.9,2.34,9.07,2.34c-3.24,0-8,1.28-9.23,2.5s-2.5,6-2.5,9.22c0-3.24-1.42-8.16-2.49-9.22s-6-2.5-9.23-2.5c3.23,0,8-1.27,9.23-2.5S648,388.4,648,385.16Z"/><path class="cls-9" d="M751.63,583.62a13.47,13.47,0,1,0,16.75,9.07A13.47,13.47,0,0,0,751.63,583.62Zm6.94,23.31a10.86,10.86,0,1,1,7.31-13.5A10.86,10.86,0,0,1,758.57,606.94Z"/><circle class="cls-10" cx="755.47" cy="596.53" r="10.86" transform="translate(-138.76 240.25) rotate(-16.57)"/><circle class="cls-11" cx="755.47" cy="596.53" r="9.81" transform="translate(-138.76 240.25) rotate(-16.57)"/><path class="cls-12" d="M758.87,606.79a.33.33,0,0,1-.22.41h0a.33.33,0,0,1-.41-.22l-.53-1.77a.33.33,0,0,1,.22-.41h0a.33.33,0,0,1,.41.22Z"/><path class="cls-13" d="M746.73,598.66a.33.33,0,0,1,.41.22h0a.33.33,0,0,1-.22.41l-1.77.53a.33.33,0,0,1-.41-.22h0a.33.33,0,0,1,.22-.41Z"/><path class="cls-12" d="M765.7,593a.33.33,0,0,1,.41.22h0a.33.33,0,0,1-.22.41l-1.77.53a.33.33,0,0,1-.41-.22h0a.33.33,0,0,1,.22-.41Z"/><path class="cls-12" d="M753.23,587.86a.33.33,0,0,1-.22.41h0a.33.33,0,0,1-.41-.22l-.53-1.77a.33.33,0,0,1,.22-.41h0a.33.33,0,0,1,.41.22Z"/><path class="cls-14" d="M761.83,600.63l-6.27-4-.24.37,6.27,4a.22.22,0,1,0,.24-.37Z"/><circle class="cls-13" cx="755.45" cy="596.46" r="1.15" transform="translate(-138.74 240.24) rotate(-16.57)"/><path class="cls-13" d="M762.93,594l-7.13,2.12.13.43,7.13-2.12a.22.22,0,0,0-.13-.43Z"/><path class="cls-13" d="M755.82,596.05a.48.48,0,0,1-.32.6h0a.48.48,0,0,1-.6-.32l-2-6.83a.48.48,0,0,1,.32-.6h0a.48.48,0,0,1,.6.32Z"/><circle class="cls-12" cx="755.45" cy="596.46" r="0.78" transform="translate(-138.74 240.24) rotate(-16.57)"/><path class="cls-15" d="M704.82,670.83a58.06,58.06,0,0,0-4.37-15.23.7.7,0,0,0-.68-.34l-5-10.16c-.17-.35-.7-.35-1.14-.17q-.34-1-.67-2c-.15-.45-.86-.33-1.34,0l-.24-.33a1.23,1.23,0,0,0-1.73.19L687,638.29c-.3-.51-1.77-.18-1.77.43s0,1.05,0,1.58l-.11,0q-.79-1.83-1.44-3.73c-.26-.76-1.89-.11-1.79.63l.39,2.81a37.41,37.41,0,0,1-2.65-6.09c-.25-.74-2-.2-1.81.56l.85,4.18A22,22,0,0,1,676,632.8c-.22-.75-2-.21-1.81.55l.22,1.2-1.49-2.64c-.31-.54-1.75-.16-1.78.48q-.4-.82-.75-1.67c-.28-.69-2-.46-1.86.35l.39,2.83a34.45,34.45,0,0,1-1.8-3.15c-.31-.62-1.82-.24-1.81.45l.07,3.28q-1.14-1.62-2.12-3.34c-.33-.58-1.87-.25-1.8.47l.1,1-.84-1.78c-.3-.63-1.81-.34-1.83.36s0,1.15,0,1.73l-.81-1.6c-.27-.54-1.88-.63-1.86.15q0,.79.08,1.58l-.44-.55c-.25-.31-1.43-.38-1.71,0-.47-.52-1.8-.75-1.58.08a19.7,19.7,0,0,0,.6,1.89l-1-1.87c-.34-.61-1.84-.12-1.78.56l0,.53-.4-.8c-.29-.59-1.93-.18-1.79.52.07.35.13.71.18,1.06l-1-2.25c-.3-.65-1.81-.21-1.81.47v3.72l-.34-.67c-.29-.57-1.67-.28-1.8.29-.07.3-.12.6-.16.91a5.42,5.42,0,0,0-1.41-2.47c-.36-.32-1.64-.14-1.67.45q-.11,2,0,3.94a8.64,8.64,0,0,0-1.31-2.59c-.39-.49-1.9-.29-1.8.48l.36,2.88c-.54-.26-1.66,0-1.58.61l0,.38c-.58-.15-1.45.05-1.38.56l.18,1.32-.18-.6c-.19-.62-2-.52-1.86.15l0,.15h0v0l.06.25c-.59-.26-1.4-.24-1.27.31a20.54,20.54,0,0,0,.83,2.73.39.39,0,0,0-.21.44l.13.55-.16-.34c-.27-.56-1.9-.54-1.85.21l.12,1.83-.4-.84c-.31-.63-1.73-.53-1.86.18a24.2,24.2,0,0,0-.33,2.86l-.1-.2c-.28-.55-1.8-.69-1.86.09a32.87,32.87,0,0,0-.08,4.19l0-.06c-.23-.56-1.91-.69-1.86.07s.09,1.35.14,2c-.52-.35-1.79-.31-1.68.31l.44,2.46c-.31-.64-2-.54-1.85.15q.34,2.16.75,4.31c-.51,0-1,.21-.94.58l1.6,7.19-1-2.76c-.25-.66-2.05-.72-1.85.14q.63,2.62,1.32,5.21c-.58-.26-1.47-.26-1.32.26A62.41,62.41,0,0,0,625,688c.35.61,2.11.41,1.8-.42s-.53-1.45-.78-2.18c.55,0,1.15-.2,1.06-.61l-1.25-5.63c.59.05,1.32-.24,1.16-.79q-.91-3.06-1.68-6.16c.59.2,1.57.07,1.46-.51q-.45-2.49-.89-5c.6.19,1.48,0,1.37-.5q-.6-2.72-1-5.47l.73,1.78c.27.66,2.07.54,1.83-.3a31.71,31.71,0,0,1-1.27-7.59c.24.7.45,1.41.63,2.13q.13.63.29,1.25c.17.64,2,.53,1.86-.14l0-.15h0l0-.14c-.06-.27-.12-.53-.19-.8a23.8,23.8,0,0,1-.52-5.64q.64,1.69,1.15,3.43c.21.72,1.94.68,1.89-.13l-.22-3.28.78,1.68c.28.59,1.89.41,1.84-.32s-.13-1.57-.23-2.34l.37.5c.36.47,2,.44,1.74-.38l-.19-.69c.42,0,.78-.17.73-.56l-.11-.85c.57.12,1.42-.12,1.35-.63l-.2-1.56c.55.22,1.6-.11,1.53-.68l-.29-2.3a5.9,5.9,0,0,0,1,1.4c.41.41,1.93.32,1.8-.5a42.12,42.12,0,0,1-.53-5.27,4.79,4.79,0,0,0,1.66,2.65c.39.28,1.87.13,1.68-.6a10.46,10.46,0,0,1-.23-1.16l.52,1c.32.63,1.82.26,1.81-.44q0-1.68,0-3.36l1.21,2.63c.25.54,1.75.25,1.79-.34,0-.34,0-.69,0-1l.46.95c.31.62,1.84.13,1.78-.55l-.11-1.15.35.63c.27.49,1.42.21,1.69-.3.2.34.41.67.63,1,.32.48,1.93.63,1.77-.22l-.16-.87.12.29c.24.59,2,.47,1.85-.22-.09-.4-.17-.8-.24-1.21l1,1.93c.28.56,2,.38,1.83-.34s-.27-1.4-.37-2.1l1.09,2.34c.29.62,1.86.18,1.79-.51l-.25-2.55q.86,1.23,1.81,2.4c.43.53,1.81.22,1.79-.52s0-1.62,0-2.43a34.94,34.94,0,0,0,2.23,3.08c.39.48,1.91.29,1.8-.49l-.17-1.2c.4.62.83,1.22,1.28,1.81.3.39,1.32.28,1.67-.15l1.45,2.57c.31.54,1.64.12,1.75-.48a23.1,23.1,0,0,0,2.32,2.86c.45.47,1.76,0,1.72-.66q.81,1.36,1.73,2.65c.34.48,1.79,0,1.71-.64l0-.19a53,53,0,0,0,3.83,6.4c.26.38,1.05.17,1.45-.22q.6.93,1.24,1.83c2.54,5.83,4,12.3,6.74,18,.34.7,2,0,1.74-.73l-.36-1.11q.7,1.31,1.43,2.6a1.32,1.32,0,0,0-1.49.31,8,8,0,0,0-.86,1.4,7,7,0,0,1-.55-1.25.53.53,0,0,0-.38-.34,52.58,52.58,0,0,0-5-13.67c-.33-.63-2.11-.05-1.7.72A51.58,51.58,0,0,1,696,673a7.78,7.78,0,0,0,.19,1.14c.12.49.91.47,1.42.18l.26.28c.42.43,1.67.2,1.76-.47a6.71,6.71,0,0,1,.38-1.47l2,2.86c.37.53,1.46,0,1.68-.44a5.17,5.17,0,0,0,.59-1.89,8.46,8.46,0,0,0-.08-1.15,1.38,1.38,0,0,0,.61-.46A.59.59,0,0,0,704.82,670.83ZM691.47,648q-.29-.53-.6-1.06a1.41,1.41,0,0,0,.51-.24Zm6.55,8.53q-.78-1.83-1.51-3.68l1.77,3.6Zm-3.54-1.6q-.48-1.32-1-2.61a.47.47,0,0,0,.07-.26l-.12-2q2.34,6.35,5.22,12.49v0q-1.82-3.65-3.46-7.39A.62.62,0,0,0,694.48,654.89Zm6.56,16c.55.33,1.73-.27,1.55-.93l-1-3.86a1.31,1.31,0,0,0,.38-.31q.61,2.49,1,5l-.08.06a1.39,1.39,0,0,0-.42,1.32c0,.25,0,.48,0,.7Z"/><path class="cls-15" d="M702.7,672.81c-.2-.31-.76-.34-1.21-.21l-1-2.61c-.26-.7-2-.5-1.87.3l.5,3.59c-.54-.06-1.26.26-1.3.71a64.55,64.55,0,0,0-.16,6.78l-.16-.39c-.27-.63-1.82-.41-1.84.3q-.09,2.61,0,5.22l-.15-.58c-.16-.63-1.91-.52-1.86.19l.41,5.73c-.08-.33-.15-.66-.21-1-.13-.76-1.94-.68-1.89.1l.15,2.4c-.55-.21-1.47,0-1.48.51s0,1.26,0,1.89c-.43-.43-1.65-.31-1.74.32s-.18,1.53-.24,2.3c-.5-.21-1.34-.13-1.47.3-.06.2-.11.39-.16.59-.44-.36-1.54-.33-1.65.26a17.53,17.53,0,0,0-.24,1.76c-.36-.48-1.75-.68-1.79,0,0,.5,0,1,0,1.51-.53-.38-1.64-.49-1.51.1.06.29.13.57.21.86-.5-.19-1.19-.17-1.34.3a14.66,14.66,0,0,0-.61,2.86l-1.13-1.64c-.33-.47-1.7-.45-1.77.23,0,.33-.06.66-.08,1l-.6-.58a1.62,1.62,0,0,0-1.65.14c-.29.06-.52.21-.53.49,0,.11,0,.21,0,.32l-.25-.37c-.3-.46-1.7-.3-1.82.24-.45-.41-1.9-.18-1.74.43l.51,1.91,0,0a1.49,1.49,0,0,0-.79-.33c-.14-.2-.28-.39-.43-.58a1.12,1.12,0,0,0-.78-.31c-.5-.37-1.91-.29-1.63.37.15.36.31.72.47,1.07-.46-.21-1.31-.24-1.5.1l-.14-.26c-.28-.52-2-.57-1.77.21l.24.76-.77-1.43c-.26-.49-2-.76-1.78.07l.05.25a1.48,1.48,0,0,0-1.18.42q-.4-.64-.78-1.3c-.34-.59-2-1-1.56,0,.21.46.43.91.67,1.36a1,1,0,0,0-.71.48l-.82-1c-.42-.53-2.19-.23-1.76.56a12.72,12.72,0,0,1,.71,1.57,28.75,28.75,0,0,1-2.76-4.21c-.26-.49-1.6-.27-1.8.23l-.16-.28c-.3-.56-2.06-.27-1.82.39q.44,1.26.76,2.54l-1.35-1.87c-.25-.35-1.13-.35-1.57,0l-.22-.38c-.3-.52-2-.42-1.84.32l.14.71-.54-.89a23.66,23.66,0,0,0-.82-3.39c-.16-.49-1-.58-1.54-.34-.28-.78-.53-1.57-.75-2.37s-1.93-.63-1.89.17l.12,2.42-1.19-1.53a30.33,30.33,0,0,1-1.89-4.55c-.2-.62-1.9-.45-1.85.27l.22,2.8a31,31,0,0,1-1.46-4.81c-.16-.76-2-.62-1.89.15.08.55.15,1.1.22,1.66-.44-2.5-.69-5.08-2.06-7.26-.28-.45-1.93-.72-1.86.11s.14,1.68.23,2.52q-.56-1.62-1.06-3.26-.73-2.79-1.46-5.59c-.18-.7-2-.69-1.84.16q.6,2.72,1.38,5.38l.88,3.43a82.36,82.36,0,0,1-5.14-12.36c-.22-.68-2.07-1-1.84-.21a75.35,75.35,0,0,0,8.73,19.27c.18.28.72.33,1.17.2l.22.5c.17.38,1,.46,1.48.26a9.42,9.42,0,0,0,1.53,3c.38.48,1.83.51,1.84-.31,0-.12,0-.25,0-.37q.62,1.3,1.35,2.54a1.19,1.19,0,0,0,1.14.32,12.4,12.4,0,0,0,2.13,3.21,1.45,1.45,0,0,0,1.29.17q1.44,1.63,2.93,3.22c.37.39,1.8.21,1.72-.48l-.18-1.67q.88,1.52,1.73,3.05c.29.53,2,.44,1.84-.3l-.15-.76c.53.29,1.74,0,1.62-.63v-.07l1.24,1.72c.37.52,1.89.3,1.81-.46,0-.39-.1-.78-.15-1.17q.5.65,1,1.29c.33.39,1.78.28,1.82-.31.43.48.87.95,1.34,1.4s1.87.32,1.8-.5c0-.18,0-.35-.06-.53l.35.43c.38.47,1.93.34,1.81-.45,0-.23-.07-.46-.12-.69l.26.24c.6.82,1.24,1.62,1.9,2.4.32.38,1.94.79,1.78-.13-.08-.45-.16-.89-.24-1.34l.14.15a.54.54,0,0,0,.16.11c.37.54.76,1.07,1.18,1.58s2,.71,1.78-.16l-.45-1.44c.57.19,1.36.1,1.29-.52l0-.13,1.13,1.57c.34.48,1.9.6,1.77-.25l-.1-.59.26.21c.4.31,1.56.24,1.69-.37a3.62,3.62,0,0,0,.07-.86c.28.37.57.74.87,1.1s2.06.27,1.8-.48l-.47-1.37a.49.49,0,0,0,.25-.28l.46.49c.43.44,1.91.19,1.77-.6-.06-.34-.13-.68-.21-1,.33,0,.63-.13.7-.36l.22.17c.46.34,2.07,0,1.48-.71.54.09,1.21,0,1.17-.5a13.87,13.87,0,0,1,.06-3.11l1,1.72c.55.94,1,1.8,2.22,1.56,1-.19.69-.89,0-1.07a2,2,0,0,1-.18-.24c.35-.06.61-.25.55-.6s-.15-.94-.21-1.4l.11.21c.31.57,2.05.76,1.84-.15-.12-.51-.2-1-.27-1.53.42.43,1.81.36,1.76-.27,0-.28-.06-.55-.1-.82.43.42,1.78.32,1.75-.32q-.1-1.6-.06-3.2l.71,2c.21.6,2,.54,1.86-.18s-.21-1.71-.29-2.56c.49.34,1.7.18,1.67-.43l-.15-2.47.26.41c.33.49,1.9.54,1.85-.26l-.24-3.32.39,1c.24.58,2,.46,1.85-.26a70.36,70.36,0,0,1-.78-7.92q.63,2.11,1.06,4.28c.15.77,2,.52,1.88-.24a64.45,64.45,0,0,1-1-10.89,47.84,47.84,0,0,1,1.24,6c.11.77,2,.5,1.87-.28l-.95-6.84.61,1.65c.24.66,1.73.49,1.85-.2A9.86,9.86,0,0,0,702.7,672.81ZM643.39,710l-1.44-1.63c.4,0,.76-.24.78-.61h.09c.14.28.28.56.43.84Z"/><path class="cls-16" d="M680.66,644.41a32.94,32.94,0,0,1,8.18,7.93,43.54,43.54,0,0,1,5.81,10.32c2.76,7.36,2.11,16.12-.79,23.34a34.06,34.06,0,0,1-34.74,21,35.49,35.49,0,0,1-20.81-9.62c-5.9-5.55-10.35-12.87-10.69-21.11a38.11,38.11,0,0,1,4.61-20.42,33.57,33.57,0,0,1,11.84-12,34.8,34.8,0,0,1,32.7-1.72,35.31,35.31,0,0,1,3.89,2.2c.64.41,2-1.06,1.21-1.57a35.93,35.93,0,0,0-34.93-1.9,36.26,36.26,0,0,0-20.81,30.13,31.41,31.41,0,0,0,1,13.28A35,35,0,0,0,633.25,695a37.39,37.39,0,0,0,20.37,12.94A36.58,36.58,0,0,0,697.82,668a31.66,31.66,0,0,0-4.27-12,41.78,41.78,0,0,0-7.13-9.5,32,32,0,0,0-4.55-3.63C681.23,642.42,679.87,643.89,680.66,644.41Z"/><path class="cls-16" d="M677.55,674.56c-2.49-4.25-7.76-5.14-12.27-5.6L664,660.14a21.38,21.38,0,0,1,7.42,2.33c.47.24,1.08-.42,1.19-.8l1.93-6.58a.41.41,0,0,0-.18-.51c-3.19-2.09-7.23-2.67-11-2.72l-.84-5.9c0-.23-.33-.24-.5-.21l-6.73,1a1.11,1.11,0,0,0-.89,1.13l.77,5.4c-5.65,2.15-10.64,7.15-10,13.62a10.12,10.12,0,0,0,4.38,7.78c2.79,1.89,6.38,2.38,9.67,2.78l1.23,8.61a20,20,0,0,1-4.38-.56.16.16,0,0,0-.17,0,20.91,20.91,0,0,1-4.62-1.77c-.46-.24-1.08.42-1.19.8L648.21,691a.41.41,0,0,0,.18.51,23.81,23.81,0,0,0,12.66,2.61l.82,5.78c0,.23.33.24.5.21l6.73-1a1.11,1.11,0,0,0,.89-1.13l-.78-5.45a16.35,16.35,0,0,0,7.46-5.31A11.8,11.8,0,0,0,677.55,674.56Zm0,7.22a58,58,0,0,0-2.68-5.52,45.86,45.86,0,0,0-2.45-4.07,10.19,10.19,0,0,1,1.64,1c1.09,2.26,2.05,4.56,2.94,6.9.08.22.36.11.57-.08A10.91,10.91,0,0,1,677.56,681.78Zm-.42,2.12a2.74,2.74,0,0,1-.23-.41.25.25,0,0,0,.31.12Zm-.52,1.37c-.69-1.16-1.47-2.27-2.19-3.41a50.88,50.88,0,0,1-2.48-4.58,32.83,32.83,0,0,0-2.14-3.76c-.43-.64-.89-1.27-1.34-1.9-.18-.25-.36-.54-.56-.83L669,671c1.39,2.39,2.78,4.77,4.1,7.19q1.06,1.94,2.07,3.91l.91,1.8c.15.31.28.82.63,1h0ZM675,687.7a77.05,77.05,0,0,1-4.61-6.55,5.77,5.77,0,0,0,0-.79.57.57,0,0,0,0-.07.46.46,0,0,0,0-.08c0-.12-.05-.24-.08-.36s.13-.22.09-.29c-.55-.95-1.14-1.85-1.66-2.8l1.33,2,2.73,4.14a30.5,30.5,0,0,0,2.81,4.14C675.36,687.28,675.18,687.5,675,687.7ZM672,690.06c-.67-1.19-1.49-2.3-2.15-3.5-.3-.55-.59-1.11-.89-1.66l-.12-.24.29-.32a13.32,13.32,0,0,0,1.42,2.34c.67,1,1.35,2,2.1,2.95l0,0Zm-1.5.78c-.46-.92-1-1.82-1.45-2.73a14.39,14.39,0,0,0-1.42-2.44l0,0a7.14,7.14,0,0,0,.7-.5c.18.33.3.78.44,1.07.27.57.57,1.12.87,1.68a20.44,20.44,0,0,0,1.6,2.6Zm-1.17.49q-1.3-2.64-2.73-5.19a.77.77,0,0,0,.21-.06l.41-.21a.3.3,0,0,0-.06.22h0a27.25,27.25,0,0,0,2.47,5.13Zm-3.19,7c-2-3.62-3.94-7.33-6-10.91h.39a91.22,91.22,0,0,0,6,10.87Zm-1.69.24a15,15,0,0,0-1.62-2.27l-.32-2.26c.78,1.5,1.58,3,2.39,4.47Zm-5-5.77c-.8-1.87-1.64-3.78-2.54-5.62l.78.1a20.15,20.15,0,0,0,1.53,3.29c.37.72.71,1.53,1.13,2.25Zm-1.72-.1c-1.13-1.86-1.72-4.09-2.87-5.94l1,.23a46.64,46.64,0,0,0,2.44,5.76Zm-1.85-.23a33.61,33.61,0,0,0-3-6.34l.68.23c1.13,2,1.89,4.18,3,6.2Zm3.81-2.76c-.41-.76-.77-1.6-1.24-2.35l.86,0c.77,1.82,1.62,3.62,2.52,5.39h-.41A34.38,34.38,0,0,0,659.77,689.69Zm-10.07-31c-.07-.16-.12-.37-.21-.55l.41-.42c.56,1.39,1.17,2.76,1.79,4.13a25.87,25.87,0,0,0,1.88,3.93c.07.1.18.08.29,0a4,4,0,0,0,1.37,2.32,7.34,7.34,0,0,0,.78.48.22.22,0,0,0,0,.17c.68,1.58,1.57,3.08,2.37,4.6l.47.89c-3.17-4.66-6-9.52-8.76-14.43a.33.33,0,0,0,0-.16A4.31,4.31,0,0,0,649.71,658.73Zm1.23-1.87c.9,2.23,2.05,4.37,3,6.6a.23.23,0,0,0,.05.08,5,5,0,0,0-.12.59c-.43-1-1-2-1.47-3-.62-1.29-1.26-2.58-1.93-3.85Zm1.48-1q1.37,2.75,2.76,5.5l0,0a5.59,5.59,0,0,0-.62.78,32,32,0,0,0-2.94-5.82Q652,656.07,652.42,655.82Zm1.5-.81c.43,1,1,1.92,1.51,2.86a17.31,17.31,0,0,0,1.3,2.3,8,8,0,0,0-.76.51,52,52,0,0,0-2.88-5.25C653.36,655.29,653.63,655.14,653.91,655Zm1.36-.58a27.83,27.83,0,0,1,2.9,5.25.72.72,0,0,0-.56,0h0a16.87,16.87,0,0,0-1.55-2.79c-.44-.75-.86-1.53-1.36-2.25Zm2.4-6.77a62.07,62.07,0,0,0,3,5.81c.95,1.72,1.84,3.55,2.93,5.2h-.26c-1.16-1.9-2.43-3.71-3.51-5.66q-.79-1.44-1.5-2.92a13.54,13.54,0,0,0-1.1-2.37Zm1.6-.23a37.11,37.11,0,0,0,2.36,5.59l-.3-.52c-.92-1.64-1.74-3.36-2.72-5Zm8.4,28.69c.21.5.42,1,.66,1.51l-.39-.2a.34.34,0,0,0,0-.25c-1-2.33-2.25-4.6-3.48-6.85h.07q1.69,2.7,3.42,5.36C667.81,675.76,667.62,676,667.67,676.12Zm-.17,8.38-.84-5.87a3.26,3.26,0,0,1,.84,5.87Zm-6.54-7.3c0-.06-.12,0-.19,0l0-.2a.31.31,0,0,0,.35,0c.76,1,1.59,2,2.34,3s1.6,2.21,2.38,3.33l.26,1.86A92.21,92.21,0,0,0,661,677.19Zm-4-15.94.92,6.48a6.27,6.27,0,0,1-1.43-.74,3.55,3.55,0,0,1-1.25-3.31A3.35,3.35,0,0,1,657,661.25ZM665.6,677l-.08.05a43.24,43.24,0,0,0-2.74-4.33l-1.53-2.44a10.43,10.43,0,0,0-1.62-2.33.16.16,0,0,0-.18,0l-.4-2.83c1.08,2.05,2.19,4.09,3.31,6.12q.86,1.56,1.74,3.12A24.51,24.51,0,0,0,665.6,677Zm-6.21-8.07a18.43,18.43,0,0,0,1.12,2c.48.83,1,1.65,1.48,2.47a28.49,28.49,0,0,0,2.92,4.57.18.18,0,0,0,.13.06l.14.95c-1.89-3.34-4.69-6.1-6.5-9.48A1.17,1.17,0,0,0,659.4,668.9Zm6,11.5.09.61-.33-.46A.8.8,0,0,0,665.4,680.4Zm-7.5-11c1.53,3.68,4.38,6.55,6.35,10a25.84,25.84,0,0,0-3-3.26c-1.71-2.15-2.78-4.68-4.23-7C657.3,669.19,657.59,669.28,657.89,669.36Zm4.59-9.86q-.43-.8-.91-1.57.47.71,1,1.37A1,1,0,0,0,662.48,659.5Zm-.36,1.69c.1.19.33.14.53,0l.21,1.48c-.48-.87-.92-1.76-1.38-2.65C661.71,660.41,661.92,660.79,662.13,661.19Zm1.65,7.85-.4-.73.1,0a.41.41,0,0,0,.2,0Zm.4,3.27L663,670.23c-1.14-1.92-2.28-3.83-3.45-5.73A6.39,6.39,0,0,0,659,663a.19.19,0,0,0-.25-.08l-.12-.85c.54.84,1.1,1.68,1.59,2.54.8,1.39,1.54,2.81,2.28,4.24C663.07,670,663.63,671.15,664.18,672.31Zm-5.83-12,0-.28.22.49Zm2.72,27.11.16,0c.37.86.93,1.68,1.36,2.48.54,1,1.09,2,1.62,3l.15.3C663.24,691.26,662.13,689.34,661.08,687.38Zm.36-5.49a37.82,37.82,0,0,1,3.34,5.43c.51,1,1,2,1.46,3a8.28,8.28,0,0,0,1.51,2.62l.1.68a76.4,76.4,0,0,0-6.07-10.21.11.11,0,0,0-.12,0Zm6.72,9.92c-1.12-1.83-1.92-3.84-2.94-5.73a27,27,0,0,0-3.78-5.52.18.18,0,0,0-.19,0l-.35-2.42a144.09,144.09,0,0,1,7.52,13.57A.94.94,0,0,0,668.16,691.81Zm5.3-3c-.68-.91-1.36-1.82-2-2.75a14.85,14.85,0,0,0-1.76-2.48,4.88,4.88,0,0,0,.59-1.5,46.43,46.43,0,0,0,4,6.28q-.38.35-.79.67A.28.28,0,0,0,673.46,688.85Zm-2.7-17.35c1,1.9,2.26,3.71,3.26,5.64a65.79,65.79,0,0,1,2.86,6.28c-.13-.28-.24-.59-.35-.8q-.51-1-1-1.95-1-1.85-2.05-3.68c-1.12-1.94-2.29-3.87-3.52-5.74Zm5.36,3.91a9.26,9.26,0,0,1,1.13,2.58Q676.73,676.68,676.11,675.4Zm-9.4-4.81a24.06,24.06,0,0,0,2.08,3.13,39.18,39.18,0,0,1,2.51,4.5c.46,1,1,1.92,1.47,2.86l-2-2.86c-1.79-2.62-3.6-5.23-5.45-7.8Zm-1.11-17.2c.61,1.19,1.21,2.38,1.82,3.56.43.82.8,1.8,1.29,2.65l-1-.28c-1-2-1.95-4-3-6Zm3.31.58c.7,1.59,1.42,3.14,2,4.77l-1-1.92c-.31-.6-.63-1.2-.95-1.79a13.1,13.1,0,0,0-.61-1.2Zm2.75,6.21.15-.08-.07.23Zm-4.35-6.29a2,2,0,0,0,.37.76.2.2,0,0,0,.27,0c.24.52.51,1.16.55,1.24q.44.92.9,1.82l1.31,2.61-.72-.29a18.74,18.74,0,0,0-1.95-3.81c-.5-.92-1-1.83-1.55-2.74l.71.11Zm4.79,5.2a25.31,25.31,0,0,0-2.08-4.79l.73.26a.14.14,0,0,0,0,.07,21.1,21.1,0,0,0,1.37,3.47.18.18,0,0,0,.24.08Zm-.16-3.46q-.18-.37-.38-.72l.32.15a.3.3,0,0,0,0,.21Zm1,.45-.11-.21c-.06-.13-.12-.26-.17-.39l.39.23Zm-9.16-2.82c.84,1.94,1.74,3.87,2.67,5.77l-.27-.05c-1.17-1.89-2.32-3.77-3.35-5.74Zm-2.08-2.37c-.54-1.19-1.06-2.4-1.61-3.59l1.08-.15Zm-5.24-3.07a8.45,8.45,0,0,0,1.08,2.85q.74,1.58,1.57,3.11c.51.95,1,1.91,1.61,2.85-1.67-2.58-3.48-5.08-4.46-8,0-.1-.13-.09-.23,0l-.1-.68Zm-.13,2.93a34.46,34.46,0,0,0,2.69,5.23c-.7-1-1.44-2.07-2.21-3.07a.15.15,0,0,0-.18,0Zm.16,3c1.23,1.93,2.52,3.82,3.64,5.83,1,1.79,1.68,3.86,3,5.46l0,0,.22,1.55c-.18-.3-.34-.61-.45-.76-.39-.52-.8-1-1.18-1.56a27.15,27.15,0,0,1-2.16-3.78,33,33,0,0,0-3.65-6.35h0A1.07,1.07,0,0,0,656.54,653.75Zm-7.61,5.09c0,.13.1.27.15.39a.25.25,0,0,0,0,.22,106.76,106.76,0,0,0,9.6,16.41l-1.14-.16c-1.59-2.75-3.09-5.56-4.66-8.32-1.47-2.58-2.84-5.28-4.49-7.76Q648.62,659.22,648.93,658.84Zm7,16.56a138.82,138.82,0,0,0-8.58-13.8,10.1,10.1,0,0,1,.54-1.13c1.22,2.67,2.76,5.23,4.2,7.77s2.87,4.85,4.32,7.26Zm-3.8-1.24a5.87,5.87,0,0,0-.28-.57l.4.63Zm1.66.63c-2.26-3.74-4.65-7.41-7-11.09a9.69,9.69,0,0,1,.29-1.27c2.45,4.23,5,8.38,7.45,12.62l-.7-.22Zm-7.11-10.06c1,1.71,1.93,3.42,2.93,5.12h0q-1.37-2.28-2.75-4.55a.17.17,0,0,0-.18-.08C646.62,665.06,646.62,664.89,646.63,664.73Zm.16,2.39c0-.14,0-.28-.06-.41.7,1.31,1.41,2.62,2.13,3.92.43.78.87,1.55,1.32,2.32l0,0A9.29,9.29,0,0,1,646.79,667.12Zm5,18.53c.61,1.23,1.34,2.4,1.92,3.65q.69,1.47,1.27,3l-.5-.11c-.62-1.21-1.26-2.42-1.9-3.63-.48-.91-.94-1.88-1.5-2.76l.12-.39Zm.94,6c-.27-.65-.66-1.27-1-1.89s-.68-1.34-1.07-2c0-.07-.12-.07-.2,0l.21-.71c.69,1.62,1.59,3.21,2.43,4.76Zm-2.17-.86a5.17,5.17,0,0,0-.42-.49,3.17,3.17,0,0,1-.29-.4l.17-.59c.26.54.52,1.09.82,1.62Zm12.62,7.44.29.46-.22,0ZM668,698q-1.41-3.07-3-6c-.54-1-1.09-2-1.66-3a20,20,0,0,0-1.38-2.31.84.84,0,0,0,.06-.45l-.18-1.29c1.89,3.57,4,7,5.89,10.6a.2.2,0,0,0,.07.08l.28.68a3.38,3.38,0,0,0,.16.37l.19,1.31Z"/><path class="cls-16" d="M696.33,697.3a47.71,47.71,0,0,1-19.85,15c-8.49,3.37-17.63,2.89-26.29.45a40.17,40.17,0,0,1-11.56-4.9,40.6,40.6,0,0,1-9.12-8.54,43,43,0,0,1-9.29-22.78,42,42,0,0,1,4.82-24,41.22,41.22,0,0,1,18.15-17.3,44.9,44.9,0,0,1,25-3.88,42.52,42.52,0,0,1,12.41,3.41,33.57,33.57,0,0,1,10.81,8.38,46.46,46.46,0,0,1,11.42,21.72,42.76,42.76,0,0,1-2,24,41.36,41.36,0,0,1-2.6,5.41c-.24.41-.17.93.36,1s1.13-.51,1.37-.93A44.21,44.21,0,0,0,705.6,670a44.85,44.85,0,0,0-8.67-23.71,47,47,0,0,0-9.87-10.3,34.07,34.07,0,0,0-12.42-5.5,48,48,0,0,0-26.55,1.1,44.76,44.76,0,0,0-30,39.59,44,44,0,0,0,6.05,24.61c4.37,7.35,11,14.06,19.14,17.1,8.78,3.29,18.59,5.09,27.85,2.89,8.53-2,16.4-7,22.53-13.22a50.46,50.46,0,0,0,4.08-4.65c1-1.26-.66-1.54-1.41-.57Z"/><path class="cls-15" d="M563.26,665.32a58.83,58.83,0,0,0-4.43-15.44.71.71,0,0,0-.68-.35l-5.07-10.3c-.18-.36-.71-.35-1.15-.18q-.35-1-.68-2.07c-.15-.46-.88-.33-1.36,0l-.25-.33a1.24,1.24,0,0,0-1.75.19l-2.67-4.49c-.31-.51-1.79-.18-1.8.43s0,1.06,0,1.6l-.11,0q-.8-1.86-1.46-3.78c-.26-.77-1.91-.12-1.81.64l.4,2.84a37.9,37.9,0,0,1-2.68-6.17c-.25-.75-2-.2-1.83.57l.86,4.24a22.31,22.31,0,0,1-2.76-5.92c-.23-.76-2-.22-1.84.56l.23,1.22-1.51-2.68c-.31-.55-1.78-.16-1.8.48q-.41-.83-.76-1.7c-.29-.7-2-.47-1.89.35l.4,2.87A34.89,34.89,0,0,1,525,624.7c-.32-.63-1.85-.25-1.83.46l.07,3.33q-1.15-1.64-2.15-3.38c-.34-.59-1.9-.25-1.83.48l.1,1-.85-1.8c-.3-.64-1.84-.34-1.85.37s0,1.17,0,1.75l-.82-1.62c-.28-.54-1.91-.64-1.88.15q0,.8.08,1.6l-.44-.56c-.26-.31-1.45-.39-1.73,0-.47-.53-1.83-.76-1.61.08a20,20,0,0,0,.61,1.92l-1.05-1.89c-.34-.62-1.87-.13-1.8.57l0,.54-.4-.81c-.29-.6-2-.18-1.81.53.07.36.13.72.18,1.07L505,626.26c-.3-.66-1.83-.21-1.83.47q0,1.89,0,3.77l-.35-.68c-.29-.57-1.69-.29-1.83.3-.07.31-.12.61-.17.92a5.49,5.49,0,0,0-1.43-2.5c-.36-.32-1.66-.14-1.7.46q-.11,2,0,4a8.75,8.75,0,0,0-1.33-2.63c-.39-.5-1.92-.3-1.83.48l.36,2.92c-.54-.26-1.68,0-1.6.61l.05.38c-.59-.15-1.47.05-1.4.57l.18,1.34-.19-.61c-.2-.63-2-.53-1.88.16l0,.15h0v0l.06.25c-.6-.27-1.41-.25-1.29.31a20.82,20.82,0,0,0,.84,2.77.4.4,0,0,0-.22.45l.13.56-.16-.35c-.27-.57-1.93-.55-1.88.22l.12,1.85-.4-.86c-.31-.64-1.75-.54-1.88.19a24.51,24.51,0,0,0-.33,2.9l-.1-.21c-.29-.55-1.82-.7-1.89.09a33.31,33.31,0,0,0-.08,4.25l0-.06c-.23-.56-1.93-.7-1.89.07s.09,1.37.15,2.06c-.52-.36-1.81-.31-1.7.32l.45,2.49c-.31-.65-2-.54-1.87.15q.35,2.19.76,4.37c-.52,0-1,.22-1,.59l1.62,7.28-1-2.8c-.25-.67-2.08-.73-1.87.14q.64,2.65,1.34,5.28c-.59-.27-1.49-.27-1.34.26a63.24,63.24,0,0,0,5.7,13.76c.35.62,2.14.42,1.83-.42s-.53-1.47-.79-2.21c.55,0,1.17-.2,1.08-.62l-1.27-5.7c.59.05,1.34-.24,1.18-.8q-.92-3.1-1.7-6.24c.6.21,1.59.07,1.48-.51q-.46-2.52-.91-5c.61.2,1.5,0,1.39-.5q-.61-2.76-1-5.55l.74,1.8c.28.67,2.1.55,1.85-.3a32.13,32.13,0,0,1-1.28-7.69c.24.71.46,1.43.64,2.16q.13.64.3,1.27c.17.65,2,.54,1.89-.14l0-.15h0l0-.14c-.06-.27-.12-.54-.19-.81a24.1,24.1,0,0,1-.53-5.71q.65,1.71,1.16,3.48c.21.73,2,.69,1.91-.14l-.22-3.32.8,1.7c.28.6,1.91.42,1.86-.32s-.13-1.59-.24-2.38l.37.51c.36.48,2,.45,1.77-.38l-.19-.7c.43,0,.79-.18.74-.57l-.11-.86c.58.12,1.44-.12,1.37-.63l-.21-1.58c.55.22,1.63-.11,1.55-.69l-.29-2.33a6,6,0,0,0,1,1.42c.41.41,2,.32,1.82-.51a42.68,42.68,0,0,1-.54-5.34,4.86,4.86,0,0,0,1.68,2.69c.4.28,1.89.13,1.7-.61a10.6,10.6,0,0,1-.23-1.17l.53,1c.32.63,1.84.26,1.84-.44q0-1.7,0-3.41l1.23,2.66c.25.55,1.78.25,1.82-.35,0-.35,0-.7,0-1l.47,1c.31.63,1.87.13,1.8-.56l-.11-1.17.35.63c.27.49,1.44.22,1.72-.3.2.34.41.68.64,1,.33.48,2,.63,1.79-.22l-.17-.88.12.29c.24.6,2,.48,1.88-.23-.09-.41-.17-.81-.24-1.22l1,2c.28.57,2,.38,1.86-.35s-.28-1.42-.38-2.13L520,632.3c.29.63,1.89.18,1.82-.52l-.25-2.58q.88,1.24,1.84,2.43c.44.54,1.83.23,1.81-.53s0-1.64,0-2.46a35.37,35.37,0,0,0,2.26,3.12c.39.49,1.93.3,1.83-.49l-.17-1.21c.41.62.84,1.23,1.3,1.83.3.39,1.34.28,1.69-.15l1.47,2.61c.31.55,1.66.13,1.77-.49a23.42,23.42,0,0,0,2.35,2.9c.45.47,1.79,0,1.74-.67q.82,1.37,1.75,2.69c.35.49,1.82,0,1.73-.65l0-.19a53.68,53.68,0,0,0,3.88,6.49c.27.38,1.07.17,1.47-.22q.6.94,1.26,1.86c2.58,5.91,4.09,12.46,6.83,18.23.34.71,2,0,1.77-.74l-.36-1.12q.71,1.32,1.45,2.64a1.34,1.34,0,0,0-1.51.31,8.13,8.13,0,0,0-.87,1.42,7.14,7.14,0,0,1-.55-1.27.53.53,0,0,0-.38-.34,53.28,53.28,0,0,0-5.07-13.85c-.34-.64-2.14-.05-1.73.73a52.27,52.27,0,0,1,5.3,15.42,7.87,7.87,0,0,0,.19,1.16c.12.5.92.47,1.44.18l.27.29c.43.44,1.69.2,1.79-.47a6.81,6.81,0,0,1,.39-1.49l2.06,2.89c.38.53,1.47,0,1.7-.45a5.24,5.24,0,0,0,.6-1.91,8.57,8.57,0,0,0-.08-1.17,1.4,1.4,0,0,0,.61-.47A.6.6,0,0,0,563.26,665.32Zm-13.52-23.17q-.29-.54-.6-1.07a1.43,1.43,0,0,0,.52-.25Zm6.63,8.64q-.79-1.85-1.53-3.73l1.79,3.65Zm-3.59-1.62q-.48-1.34-1-2.65a.48.48,0,0,0,.07-.27l-.13-2q2.37,6.44,5.29,12.66v0q-1.84-3.7-3.5-7.49A.63.63,0,0,0,552.78,649.17Zm6.65,16.24c.56.33,1.75-.27,1.57-.94L560,660.55a1.33,1.33,0,0,0,.39-.31q.62,2.52,1,5.1l-.08.06a1.41,1.41,0,0,0-.42,1.33c0,.25,0,.48,0,.71Z"/><path class="cls-15" d="M561.12,667.33c-.21-.31-.77-.34-1.23-.21l-1-2.65c-.26-.71-2-.51-1.89.31l.51,3.64c-.54-.06-1.28.26-1.31.72A65.46,65.46,0,0,0,556,676l-.17-.39c-.28-.64-1.84-.41-1.87.3q-.09,2.65,0,5.29l-.15-.59c-.16-.64-1.93-.53-1.88.19l.41,5.81c-.08-.33-.16-.67-.22-1-.13-.77-2-.69-1.92.11l.15,2.43c-.55-.21-1.49,0-1.5.51s0,1.28,0,1.91c-.44-.44-1.67-.31-1.76.32s-.18,1.55-.24,2.33c-.51-.22-1.36-.13-1.49.31-.06.2-.11.4-.16.6-.45-.36-1.56-.33-1.67.26a17.79,17.79,0,0,0-.24,1.78c-.37-.49-1.78-.69-1.81,0,0,.51,0,1,0,1.53-.54-.38-1.66-.5-1.53.1.06.29.13.58.21.87-.51-.19-1.21-.18-1.36.3a14.86,14.86,0,0,0-.62,2.9L537,700.22c-.33-.48-1.72-.45-1.8.24,0,.34-.06.67-.08,1l-.61-.59a1.64,1.64,0,0,0-1.67.14c-.29.06-.52.21-.54.49,0,.11,0,.21,0,.32l-.25-.38c-.3-.46-1.72-.3-1.85.25-.46-.42-1.93-.18-1.76.44s.35,1.29.52,1.93l0,0a1.51,1.51,0,0,0-.8-.34c-.14-.2-.28-.39-.43-.58a1.14,1.14,0,0,0-.79-.32c-.51-.38-1.93-.3-1.66.37.15.37.31.73.48,1.09-.47-.22-1.33-.25-1.52.1l-.15-.26c-.28-.52-2-.58-1.8.21l.24.77-.78-1.45c-.27-.5-2-.77-1.81.07l.06.25a1.5,1.5,0,0,0-1.2.43q-.4-.65-.79-1.32c-.35-.6-2.07-1-1.58,0,.21.47.44.92.68,1.38a1,1,0,0,0-.72.49l-.83-1c-.43-.53-2.22-.24-1.79.57a12.88,12.88,0,0,1,.72,1.6,29.13,29.13,0,0,1-2.8-4.26c-.27-.5-1.62-.27-1.82.24l-.16-.29c-.3-.57-2.08-.28-1.85.4q.44,1.27.77,2.58l-1.37-1.9c-.26-.36-1.15-.35-1.59,0l-.22-.39c-.3-.53-2-.43-1.86.32l.14.72-.55-.9a24,24,0,0,0-.83-3.44c-.16-.49-1.05-.59-1.56-.35-.28-.79-.54-1.59-.76-2.4s-2-.64-1.91.17l.13,2.46L497,697.48a30.73,30.73,0,0,1-1.92-4.61c-.2-.63-1.93-.45-1.87.27l.22,2.84A31.45,31.45,0,0,1,492,691.1c-.17-.77-2-.63-1.91.15.08.56.15,1.12.22,1.68-.45-2.53-.7-5.15-2.09-7.36-.29-.46-2-.73-1.89.11s.14,1.71.23,2.56q-.57-1.64-1.07-3.31-.74-2.83-1.48-5.66c-.18-.71-2.06-.7-1.87.16q.61,2.75,1.4,5.46l.89,3.48a83.45,83.45,0,0,1-5.21-12.53c-.22-.69-2.09-1-1.86-.21a76.36,76.36,0,0,0,8.84,19.52c.18.28.73.33,1.19.21l.23.51c.17.38,1,.47,1.5.26a9.54,9.54,0,0,0,1.55,3c.38.49,1.86.52,1.86-.31,0-.13,0-.25,0-.38q.63,1.31,1.37,2.57a1.2,1.2,0,0,0,1.15.33,12.56,12.56,0,0,0,2.16,3.25,1.47,1.47,0,0,0,1.31.17q1.46,1.65,3,3.26c.38.4,1.82.22,1.74-.49l-.18-1.7q.89,1.54,1.75,3.09c.3.54,2,.45,1.87-.31l-.15-.77c.54.29,1.76,0,1.64-.64v-.07l1.26,1.74c.38.52,1.91.3,1.83-.47,0-.4-.1-.8-.16-1.19q.51.66,1,1.3c.33.39,1.8.28,1.85-.31.44.49.89,1,1.36,1.42s1.9.32,1.82-.51c0-.18,0-.36-.06-.53l.35.44c.38.47,2,.35,1.84-.45,0-.23-.08-.47-.12-.7l.27.25c.61.83,1.26,1.64,1.93,2.43.33.38,2,.8,1.8-.13-.08-.45-.16-.9-.24-1.36l.15.15a.55.55,0,0,0,.16.11c.38.55.77,1.08,1.19,1.6s2.08.72,1.8-.16l-.46-1.46c.58.19,1.37.1,1.31-.53l0-.13,1.14,1.59c.35.49,1.93.6,1.79-.25l-.1-.6.27.21c.41.31,1.58.25,1.72-.38a3.67,3.67,0,0,0,.07-.87c.29.38.58.75.88,1.12s2.08.27,1.83-.49l-.47-1.39a.5.5,0,0,0,.25-.28l.47.49c.44.44,1.94.19,1.79-.6-.06-.35-.14-.69-.21-1,.34,0,.64-.13.71-.36l.22.17c.47.34,2.09,0,1.5-.72.55.09,1.23,0,1.19-.51a14,14,0,0,1,.06-3.16l1,1.75c.56,1,1,1.82,2.25,1.59,1-.19.7-.9,0-1.09a2,2,0,0,1-.18-.24c.35-.06.62-.25.56-.61s-.15-.95-.21-1.42l.11.22c.32.58,2.08.77,1.87-.15-.12-.52-.21-1-.28-1.55.42.44,1.83.36,1.78-.27,0-.28-.06-.56-.1-.83.43.42,1.81.32,1.77-.33q-.1-1.62-.06-3.24l.72,2c.21.61,2,.55,1.88-.18s-.22-1.73-.29-2.6c.5.34,1.73.19,1.69-.43l-.15-2.5.26.42c.33.49,1.93.54,1.87-.27l-.24-3.36.4,1c.25.59,2,.47,1.87-.26a71.27,71.27,0,0,1-.79-8q.64,2.14,1.08,4.34c.15.78,2,.53,1.9-.24a65.31,65.31,0,0,1-1-11,48.46,48.46,0,0,1,1.25,6.07c.11.78,2,.5,1.9-.28l-1-6.93.62,1.67c.25.67,1.76.5,1.88-.2A10,10,0,0,0,561.12,667.33ZM501,705l-1.46-1.65c.41,0,.77-.24.79-.62h.09c.14.29.28.57.43.85Z"/><path class="cls-16" d="M538.78,638.54a33.36,33.36,0,0,1,8.28,8,44.87,44.87,0,0,1,5.81,10.23c2.88,7.42,2.26,16.29-.61,23.63a34.52,34.52,0,0,1-35.4,21.6,36,36,0,0,1-21-9.74c-6-5.68-10.53-13.14-10.84-21.56a38.6,38.6,0,0,1,4.69-20.55A34,34,0,0,1,501.76,638a35.27,35.27,0,0,1,33.14-1.68,35.77,35.77,0,0,1,3.89,2.2c.64.41,2-1.06,1.21-1.57A36.39,36.39,0,0,0,504.63,635a36.71,36.71,0,0,0-21.09,30.35,32.23,32.23,0,0,0,1,13.46,35.24,35.24,0,0,0,6.24,10.95,37.84,37.84,0,0,0,20.82,13.15,37.06,37.06,0,0,0,44.57-40.68,32.2,32.2,0,0,0-4.36-12.09,42.08,42.08,0,0,0-7.24-9.59A32.37,32.37,0,0,0,540,637C539.36,636.55,538,638,538.78,638.54Z"/><path class="cls-16" d="M554.67,692.15a48.36,48.36,0,0,1-20.19,15.26c-8.61,3.4-17.88,2.89-26.66.4A40.26,40.26,0,0,1,496,702.73a41.48,41.48,0,0,1-9.07-8.56,43.54,43.54,0,0,1-9.38-23.06,42.62,42.62,0,0,1,4.89-24.3,41.83,41.83,0,0,1,18.53-17.6,45.47,45.47,0,0,1,25.21-3.87,43.1,43.1,0,0,1,12.76,3.54,33.79,33.79,0,0,1,10.63,8.26,47.18,47.18,0,0,1,11.74,22.29,43.31,43.31,0,0,1-2,24.07,41.9,41.9,0,0,1-2.67,5.57c-.24.41-.17.93.36,1s1.13-.51,1.37-.93A44.79,44.79,0,0,0,564,664.48a45.44,45.44,0,0,0-8.79-24.06,47.52,47.52,0,0,0-10-10.47,34.46,34.46,0,0,0-12.41-5.51,48.64,48.64,0,0,0-26.94,1.06,45.34,45.34,0,0,0-30.48,40.22,44.56,44.56,0,0,0,6.16,24.89c4.4,7.38,11.06,14.12,19.2,17.22,8.86,3.37,18.82,5.2,28.19,3,8.67-2,16.68-7.1,22.93-13.35a51.07,51.07,0,0,0,4.22-4.79c1-1.26-.66-1.54-1.41-.57Z"/><g id="LkW7Tg.tif"><path class="cls-16" d="M517.37,693.24l-.56-3.9c-.09-.61-.12-1.27-.27-1.87-.07-.3-.11-.49-.43-.58a2.66,2.66,0,0,0-.93.08l-2.11.3-3.87.55-2.11.3a6.74,6.74,0,0,1-1.76.25c-.46-.08-.08.2-.23-.11a2.32,2.32,0,0,1-.08-.57q-.18-1.24-.35-2.48l-.1-.71,0-.35q.06-.87-.5,0a6.09,6.09,0,0,0,1.46-.23,4.22,4.22,0,0,0,2.47-1c1.32-1.36.44-3.95.21-5.57L507,669.16l-1.14-8c-.19-1.32-.34-2.66-.61-4a2.11,2.11,0,0,0-1.59-1.89,4.28,4.28,0,0,0-1.29,0,6.74,6.74,0,0,1-1.67.21c-.35-.09-.2.24-.3-.42,0-.27-.07-.54-.11-.81q-.14-1-.29-2.06c0-.34-.1-.68-.15-1l-.34,0,.53-.07,1.94-.27,4.24-.6c1.18-.17,2.36-.31,3.53-.5.61-.1,1.24-.41,1.29-1.11a16.91,16.91,0,0,0-.44-3.23,6.83,6.83,0,0,0-.25-1.71l-.05-.34q-.66,0,0-.05c.33-.07.68-.09,1-.14l2-.29a2.21,2.21,0,0,1,.92-.09h.24q.07.39.12.78c.2,1.39.4,2.78.59,4.18.1.75.22,1.14,1.06,1.07.55,0,1.1-.17,1.65-.25a4,4,0,0,0,1.24-.25,1.17,1.17,0,0,0,.62-1.39c-.18-1.45-.41-2.89-.62-4.34a4,4,0,0,0-.12-.82v-.16q-.71.61-.13.44c.39.14,1.31-.19,1.74-.25l2.08-.3c.73-.1.58-.08.68.64.23,1.61.33,3.32.69,4.9.23,1,.94.8,1.8.82a10.63,10.63,0,0,1,7.12,2.75,8.08,8.08,0,0,1,.23,11.34,22.91,22.91,0,0,1-3,2.29c-.27.2-.76.89-.16,1a14.71,14.71,0,0,1,5,1.43,8.63,8.63,0,0,1,3.23,3.27,9.26,9.26,0,0,1,.26,8.41,11.67,11.67,0,0,1-7.29,5.77c-1.18.36-1.78.8-1.58,2.1.28,1.89.54,3.78.81,5.68l.73-.94-5.42.77.41.18c-.37-1.86-.42-3.79-.82-5.64-.1-.46-.26-.69-.75-.71a13.78,13.78,0,0,0-2.57.36,1.25,1.25,0,0,0-1.2,1.54c.25,1.9.52,3.79.79,5.69l.73-.94-5.42.77c-.54.08-1.15,1.23-.32,1.11l5.42-.77a.91.91,0,0,0,.73-.94l-.54-3.93a5.72,5.72,0,0,0-.24-1.76q0-.43-.23.09-.44.37,0,.25a3.83,3.83,0,0,0,.92-.13c.34,0,.69-.12,1-.15s.37-.14.53.21a7.29,7.29,0,0,1,.24,1.72c.19,1.32.33,2.66.59,4,0,.19.27.2.41.18l5.42-.77a.91.91,0,0,0,.73-.94c-.22-1.54-.43-3.08-.65-4.61a3.53,3.53,0,0,1-.16-1.06c.07-.25-.12,0,.12-.22a1.67,1.67,0,0,1,.44-.14,17.06,17.06,0,0,0,1.84-.71,13.42,13.42,0,0,0,5.53-4.61,10.12,10.12,0,0,0-.4-12.19c-2-2.36-4.73-3-7.67-3.49l-.16,1c1.76-1.33,3.51-2.37,4.7-4.31a9.24,9.24,0,0,0,1.25-6.63,8.86,8.86,0,0,0-4-5.68,11.09,11.09,0,0,0-3.27-1.37,22.87,22.87,0,0,0-3.36-.38c-.52,0-.57,0-.67-.55,0-.28-.08-.56-.11-.84q-.12-.9-.25-1.79l-.31-2.15c0-.33,0-.83-.36-1a1.33,1.33,0,0,0-.8,0c-.58.07-1.16.16-1.74.25l-2.08.3a2.39,2.39,0,0,0-1.3.4c-.55.47-.4,1-.31,1.69l.31,2.17.15,1.08c0,.24,0,1.39.22,1.52l.46-.43-.2,0a3.47,3.47,0,0,0-1,.14c-.33,0-.66.12-1,.14-.49,0-.44.17-.53-.42-.22-1.41-.4-2.83-.6-4.24-.12-.85-.11-1.47-1.11-1.4-1.35.09-2.73.39-4.07.59-.74.11-1.49.39-1.57,1.25a7.79,7.79,0,0,0,.24,1.71q.15,1,.29,2.06l.14,1,0,.34q-.06.88.5,0a14,14,0,0,0-2,.28l-4.24.6c-1.39.2-2.88.26-4.24.6a1.36,1.36,0,0,0-1.19,1.36,33,33,0,0,0,.51,3.55c0,.36,0,1.13.31,1.44s.76.17,1.12.12c1-.15,2.69-.62,3.32.55a6.3,6.3,0,0,1,.42,1.88c.14.84.25,1.69.37,2.54q1.24,8.63,2.46,17.27c.11.79.25,1.58.3,2.38s.08,1.18-.67,1.41c-.92.28-2.33.05-3.09.75s-.2,2.13-.08,3,.2,1.42.3,2.12c0,.34,0,.86.39,1s1.08-.05,1.45-.11l2.11-.3,4.92-.7,2.11-.3c.06,0,.61,0,.49-.1.15.12.14.88.16,1.05l.71,5C516.3,694.56,517.44,693.78,517.37,693.24Z"/><path class="cls-16" d="M516.75,675.41h0l-.41-.18c.13.95.26,1.9.41,2.84a6.78,6.78,0,0,0,.56,2.52,1.25,1.25,0,0,0,1.21.57,20.24,20.24,0,0,0,3-.33c2.93-.45,6.18-.94,7.91-3.64a6.11,6.11,0,0,0,.13-6.41c-1.74-2.84-5.27-2.44-8.12-2.12-1,.12-2.05.27-3.07.43-.74.11-1.83,0-2.39.61s-.25,1.31-.15,2c.17,1.18.34,2.37.51,3.55.08.57,1.22-.22,1.14-.76l-.33-2.31L517,671.1a4.92,4.92,0,0,0-.25-1l-.57.39a18,18,0,0,1,2.56-.39c.8-.12,1.59-.23,2.39-.32a12.78,12.78,0,0,1,4.86,0,4.74,4.74,0,0,1,3.2,5.37c-.46,3-3.25,3.87-5.91,4.32-.95.16-1.9.32-2.85.43-.76.09-1.72.42-2.12-.4a8,8,0,0,1-.41-2.2c-.14-.95-.27-1.89-.41-2.84,0-.19-.28-.2-.41-.18h0C516.53,674.37,515.92,675.53,516.75,675.41Z"/><path class="cls-16" d="M514.18,660c.12.85.25,1.7.37,2.55.07.48,0,1.59.39,2s1,.15,1.38.08c.89-.14,1.78-.25,2.67-.37,2.6-.36,5.82-.87,7.49-3.14a5,5,0,0,0-.21-6.18c-2-2.21-5.72-1.35-8.32-1l-2.83.4a1.68,1.68,0,0,0-1.4.73c-.31.56-.06,1.27,0,1.85.15,1,.29,2,.44,3.06.08.57,1.22-.22,1.14-.76-.11-.79-.22-1.59-.34-2.38q-.1-.68-.2-1.36h-.35l.71-.1c1.64-.23,3.27-.5,4.91-.67a7.15,7.15,0,0,1,4.43.53,3.83,3.83,0,0,1,1.74,3.05c.22,3.19-2.69,4-5.27,4.54-.78.15-1.56.26-2.35.36l-1.08.15c-.26,0-1.22.34-1.43.22-.4-.22-.36-1.5-.43-2-.11-.79-.23-1.59-.34-2.38C515.24,658.67,514.1,659.46,514.18,660Z"/></g><path class="cls-16" d="M506.75,688.21a13.67,13.67,0,0,0-2.07-2.73c-.17-.14-.52.22-.45.4a14.51,14.51,0,0,0,1.92,3C506.32,689.08,506.93,688.49,506.75,688.21Z"/><path class="cls-16" d="M508.45,688l-.1-.29a.12.12,0,0,0-.17-.07c-.49-.62-1-1.23-1.53-1.84s-1.54-1.46-1.72-2.29c0-.21-.4.14-.41.26,0,.84.78,1.53,1.27,2.15.68.87,1.35,1.76,2.08,2.58C508.06,688.74,508.53,688.23,508.45,688Z"/><path class="cls-16" d="M509.91,688.1a13.16,13.16,0,0,0-1.73-2.46c-.67-.86-1.34-1.73-2.08-2.54-.13-.15-.48.21-.37.37.59.86,1.23,1.69,1.82,2.55a18.13,18.13,0,0,0,1.81,2.55C509.55,688.76,510,688.31,509.91,688.1Z"/><path class="cls-16" d="M511.46,687.49a15.63,15.63,0,0,0-1.57-2.51,12.89,12.89,0,0,0-2-2.5c-.14-.11-.44.18-.37.33a23.37,23.37,0,0,0,1.59,2.51c.57.91,1.06,1.9,1.71,2.75C511,688.31,511.56,687.73,511.46,687.49Z"/><path class="cls-16" d="M512.75,687.18c-.65-1-1.44-2-2.18-2.91a21.74,21.74,0,0,0-2.3-2.79c-.13-.12-.44.18-.37.32a22.11,22.11,0,0,0,2,2.94c.74,1,1.44,2.12,2.26,3.08C512.33,688.08,512.93,687.46,512.75,687.18Z"/><path class="cls-16" d="M514.8,687.78a8.87,8.87,0,0,0-1.38-2.1l-1.63-2.26c-.88-1.22-1.74-2.72-3.09-3.49-.2-.12-.64.37-.47.55h0l.2.22a.07.07,0,0,0,0,0,34.39,34.39,0,0,1,2.65,3.34l1.41,2a9.48,9.48,0,0,0,1.68,2.2C514.46,688.44,514.88,688,514.8,687.78Z"/><path class="cls-16" d="M521.78,691.35l-.16-.12a.37.37,0,0,0,0-.35,15.7,15.7,0,0,0-1.81-2.11q-1-1.1-2-2.21-1.88-2.16-3.7-4.37c-2.43-2.94-4.69-6-7.13-8.94-.15-.17-.54.24-.42.43a100.65,100.65,0,0,0,6.84,9.22q1.74,2.17,3.55,4.28,1,1.12,1.93,2.23l.15.18c-.3-.31-.6-.62-.88-.92-1.09-1.21-2.19-2.43-3.27-3.65-2.11-2.38-4.05-4.91-6.13-7.32-.1-.17-.25-.33-.37-.49a10,10,0,0,1-.55-1c-.17-.31-.72.22-.64.48a3.27,3.27,0,0,0,.56,1,1.81,1.81,0,0,0,.57.54,56.6,56.6,0,0,0,5.63,7.24c1.06,1.24,2.14,2.47,3.22,3.7l1.61,1.84a11.58,11.58,0,0,0,1.67,1.78c.26.19.87-.34.71-.62a7.35,7.35,0,0,0-.59-.87l.32.27a.26.26,0,0,0,.2,0l.17.19c.11.12.22.28.38.32s.5-.24.43-.43S521.91,691.45,521.78,691.35Z"/><path class="cls-16" d="M519.65,692.42a11.83,11.83,0,0,0-4-3.65c-.15-.1-.48.24-.34.34a17.46,17.46,0,0,1,2,1.77,11.93,11.93,0,0,1,.8.94l-.31-.29q-.63-.63-1.24-1.28c-.17-.18-.62.27-.46.47q.56.7,1.15,1.38a4.55,4.55,0,0,0,1.15,1.15c.18.1.55-.27.52-.47l.16.16C519.25,693.13,519.77,692.64,519.65,692.42Z"/><path class="cls-16" d="M523.2,685.8l-.06,0h-.07a11.37,11.37,0,0,1-.94-1.32q-.66-.83-1.38-1.62a13.66,13.66,0,0,0-2.87-2.72c.19-.19.3-.45.16-.59-2.14-2.09-4.52-4-6.46-6.33s-3.27-4.81-5.12-7c-.14-.17-.56.24-.47.41.67,1.24,1.47,2.43,2.24,3.61s1.33,2.12,2.08,3.11c-1-1.24-2-2.51-3-3.65-.16-.17-.53.24-.41.42a88.5,88.5,0,0,0,6.82,8.82q1.65,2,3.33,4l-2.72-3.16q-1.69-2-3.35-4l-1.61-1.92a10.15,10.15,0,0,0-1.93-2.09c-.14-.09-.42.16-.36.31a9,9,0,0,0,1.45,2.12c.51.66,1,1.32,1.56,2q1.68,2.1,3.4,4.16,3.42,4.13,7,8.15a.2.2,0,0,0,0,.14,1.54,1.54,0,0,0,.3.43,1.16,1.16,0,0,0,.35.32h0l.05,0c.24.13.72-.39.57-.63a.13.13,0,0,0,0-.05.24.24,0,0,0,0-.2,1.58,1.58,0,0,0-.43-.57.28.28,0,0,0,0-.27l-.26-.29c.32.12.86-.49.65-.78-1.08-1.52-2.49-2.86-3.71-4.26s-2.38-2.76-3.55-4.16-2.18-2.62-3.26-3.94a85.58,85.58,0,0,0,6.19,6l.07,0a.14.14,0,0,0,0,.08l.14.2c-.11.08-.2.24-.14.33.63.95,1.41,1.8,2.13,2.68s1.41,1.8,2.21,2.61c.11.11.31,0,.45-.13a.81.81,0,0,0,.59.44c.21,0,.46-.26.51-.45l0-.06C523.3,685.94,523.3,685.83,523.2,685.8Z"/><path class="cls-16" d="M524.64,685.88c-1.31-1.86-2.69-3.66-4.06-5.48-.13-.18-.56.24-.43.44,1.26,1.91,2.5,3.84,3.82,5.72C524.15,686.83,524.85,686.18,524.64,685.88Z"/><path class="cls-16" d="M528.12,690.56c-.37-.42-.82-.77-1.2-1.18s-.72-.85-1.07-1.29c-.1-.13-.41.15-.39.3-.14,0-.37.2-.31.32a5.87,5.87,0,0,0,.47.88.14.14,0,0,0,0,.11,17.35,17.35,0,0,0,1.93,2.34c.22.19.67-.3.52-.53a5.64,5.64,0,0,0-.36-.48C527.93,691.08,528.27,690.73,528.12,690.56Z"/><path class="cls-16" d="M517.58,676.85l-.08-.08a.23.23,0,0,0-.28,0,10.52,10.52,0,0,1-1.25-1.39l-1.42-1.54c-1-1.07-1.94-2.15-2.89-3.25s-1.79-2.13-2.64-3.23-1.74-2.45-2.74-3.56c-.13-.15-.48.21-.41.36a35.82,35.82,0,0,0,5.21,7.27c1,1.15,2,2.28,3,3.4l1.52,1.67c.31.34.8,1.13,1.28,1.19a.63.63,0,0,0,.56-.3l.07-.11C517.58,677.17,517.69,677,517.58,676.85Z"/><path class="cls-16" d="M516.93,673.17l-.37-.48a.15.15,0,0,0-.08-.05c-1.65-1.94-3.57-3.58-5.41-5.35-2-1.94-3.66-4.2-5.58-6.22-.16-.17-.54.24-.42.42a39.14,39.14,0,0,0,5.31,6.49c2,2,4,3.8,5.8,5.93C516.44,674.21,517.18,673.49,516.93,673.17Z"/><path class="cls-16" d="M517,670.56a.27.27,0,0,0-.28,0,10.86,10.86,0,0,1-1.24-1.14L513.87,668c-1-.93-2.08-1.87-3.06-2.87a29.84,29.84,0,0,1-2.68-3.16,14.62,14.62,0,0,0-2.69-3.18c-.18-.14-.55.24-.42.42a57.08,57.08,0,0,0,5.46,7c1,1,2.11,2,3.2,3l1.73,1.53c.29.26.68.8,1.11.75a.73.73,0,0,0,.6-.6A.23.23,0,0,0,517,670.56Z"/><path class="cls-16" d="M517.62,669.42c-2.17-2.23-4.48-4.31-6.6-6.59-1.78-1.91-3.42-4-5.2-5.87a.23.23,0,0,0,0-.17l0-.08c-.05-.13-.15-.12-.26,0l-.57-.58c-.67-.79-1.66-2.05-1.83-2.26-.93-1.12-1.83-2.29-2.82-3.35-.12-.12-.44.19-.36.32a24.34,24.34,0,0,0,1.72,2.53c-.78-.82-1.57-1.64-2.28-2.53-.12-.15-.51.22-.42.37a19.35,19.35,0,0,0,2.34,3.22,3,3,0,0,0-1.1-.84c-.16,0-.41.2-.36.36a3.49,3.49,0,0,0,1,1.19,9.26,9.26,0,0,0,1.2,1.17c.27.19.81-.35.61-.62a3.41,3.41,0,0,0-.32-.37l.09.07h0c.16.15.52-.11.61-.35l.09.12.89,1.09a5.24,5.24,0,0,0,.91,1.08l.2.1a60.09,60.09,0,0,0,5.21,6.18,71.09,71.09,0,0,0,6.6,6.59C517.19,670.4,517.89,669.7,517.62,669.42Z"/><path class="cls-16" d="M519.56,668.55c-1.55-1.82-3.26-3.52-4.9-5.27.13-.1.22-.24.17-.36-.12-.3-.49-.52-.71-.76a28.3,28.3,0,0,0-4.46-6.44,21.13,21.13,0,0,1-2.56-3.12,9.89,9.89,0,0,0-2.51-2.9c-.32-.2-1,.44-.73.74l.07.08a.4.4,0,0,0-.38.3c-.07.33.19.61.36.88a23.23,23.23,0,0,0,1.39,2,22.4,22.4,0,0,0,2.89,3.16c-.11.12-.18.28-.1.37,1.23,1.48,2.5,2.93,3.78,4.37q-1-1.1-2-2.22-1.95-2.21-3.81-4.5a59.33,59.33,0,0,0-3.81-4.69c-.16-.16-.57.24-.48.42a32.61,32.61,0,0,0,3.38,4.72q1.88,2.38,3.86,4.68,4,4.58,8.36,8.78a.22.22,0,0,0,.17.06h0a2.87,2.87,0,0,0,.43.43c.19.13.54-.16.56-.39l.33.33C519.15,669.47,519.79,668.82,519.56,668.55ZM508.85,657c.15-.12.26-.32.15-.43-.94-1-1.91-1.88-2.77-2.93-.41-.5-.8-1-1.18-1.54a7.93,7.93,0,0,1-1-1.38.17.17,0,0,0,0-.08v0a24.45,24.45,0,0,1,2.27,2.72,20.11,20.11,0,0,0,2.46,3,30.59,30.59,0,0,1,3.78,4.69Q510.73,659,508.85,657Z"/><path class="cls-16" d="M515.19,659.95a12.65,12.65,0,0,0-1.95-2.36l-2.35-2.5c-1.61-1.71-3.21-3.42-4.88-5.07-.17-.17-.61.27-.45.46,1.44,1.7,2.94,3.35,4.44,5l2.19,2.4a14.59,14.59,0,0,1,2.21,2.66C514.62,660.9,515.36,660.25,515.19,659.95Z"/><path class="cls-16" d="M521.51,668.4l-2-2.51-.88-1.11a7.23,7.23,0,0,1-.9-1.05.17.17,0,0,0,0-.1l0-.06a.09.09,0,0,0-.06-.06h0c-.15,0-.31.12-.37.24-.29.62.8,1.6,1.13,2.05.81,1.1,1.63,2.19,2.45,3.28C521,669.34,521.74,668.69,521.51,668.4Z"/><path class="cls-16" d="M524.87,669.34l-.23-.37a.14.14,0,0,0-.17-.06,35.07,35.07,0,0,1-4.44-5.51c-.1-.15-.48.2-.4.35a31.08,31.08,0,0,0,3.08,4.54.25.25,0,0,0-.17,0c-1.15-1.53-2.29-3.07-3.45-4.59-.11-.15-.5.21-.41.36,1.09,1.83,2.3,3.59,3.55,5.32.16.23.58-.21.64-.34a.72.72,0,0,0,.09-.46q.58.69,1.21,1.36C524.4,670.18,525,669.59,524.87,669.34Z"/><path class="cls-16" d="M526.47,668.84l-.29-.32a.16.16,0,0,0-.14-.05,33.64,33.64,0,0,1-4.53-5c-.12-.15-.5.21-.42.36a19.17,19.17,0,0,0,4.67,5.68C526.05,669.8,526.72,669.12,526.47,668.84Z"/><path class="cls-16" d="M538.41,676.65l.29.23c.21.15.69-.27.56-.49a25,25,0,0,0-2.57-3c-.91-1.09-1.78-2.21-2.66-3.32-.15-.18-.58.25-.45.46.75,1.15,1.57,2.25,2.42,3.32.47.6,1,1.31,1.51,1.94-.57-.59-1.12-1.18-1.64-1.83-1.11-1.37-2.15-2.79-3.25-4.18a79.77,79.77,0,0,0-7.55-8.32c-.17-.16-.61.28-.45.46,2.53,2.79,5,5.63,7.24,8.63l1,1.4-1.34-1.49c-2.49-2.75-4.94-5.62-7.65-8.15-.19-.18-.65.29-.49.5,2.33,2.91,4.94,5.61,7.4,8.41s4.92,5.61,7.35,8.44c.26.3,1-.46.77-.78l-.32-.37c.38.06,1-.59.71-.88Z"/><path class="cls-16" d="M540.17,675.25c-4.5-5-9.06-10-13.62-14.9-.16-.17-.62.27-.45.46,4.4,5.11,8.8,10.22,13.26,15.27C539.64,676.4,540.47,675.58,540.17,675.25Z"/><path class="cls-16" d="M539.84,672.55a46.18,46.18,0,0,0-3.22-3.47c-1.06-1.16-2.08-2.38-3.21-3.47-.18-.17-.58.26-.45.46a40,40,0,0,0,3,3.68,29.33,29.33,0,0,0,3.21,3.48C539.45,673.46,540.05,672.84,539.84,672.55Z"/><path class="cls-16" d="M539.68,670.56a41.55,41.55,0,0,1-3.91-4.47c-.13-.17-.57.24-.43.44a29.25,29.25,0,0,0,3.75,4.63C539.32,671.38,539.91,670.79,539.68,670.56Z"/><path class="cls-16" d="M531.66,688.62a68.87,68.87,0,0,1-6.13-6.19c-.44-.51-.86-1-1.3-1.53-.21-.25-.46-.76-.87-.64-.17,0-.41.33-.34.5a.14.14,0,0,0,0,.1,45.57,45.57,0,0,0,2.37,4.39q-1.73-2.31-3.36-4.71c-.12-.18-.58.24-.48.42a74.52,74.52,0,0,0,7.72,10.94c.27.31,1.07-.47.79-.8l-.81-1a4,4,0,0,0,1.25.83c.2.08.59-.32.43-.51-.61-.72-1.45-1.27-2.09-2a26,26,0,0,1-2-2.45c-.69-1-1.34-2-2-3,.57.7,1.16,1.38,1.76,2a51.76,51.76,0,0,0,4.31,4.22C531.26,689.55,531.92,688.86,531.66,688.62Z"/><path class="cls-16" d="M532.22,683.88c-.73-.87-1.67-1.6-2.46-2.42s-1.51-1.73-2.35-2.51c-.14-.13-.5.21-.42.36l.14.22c-.18.05-.38.29-.31.43l0,.07-.6-.56c-.1-.09-.25,0-.35.11l-.41-.54c-.15-.2-.63.27-.53.47a34.11,34.11,0,0,0,5.13,7.18c.26.28.89-.4.7-.71l-.33-.58a.17.17,0,0,0-.21-.08l-1-1.16.78.88c.21.24.84-.37.62-.63l-.78-.92a5,5,0,0,0,1,.69.26.26,0,0,0,.25,0c.15.12.3.24.46.35S532.46,684.11,532.22,683.88Z"/><path class="cls-16" d="M534.24,683l0,0a.2.2,0,0,0-.11,0c-1.93-1.7-3.39-3.93-5.36-5.59-.18-.15-.55.24-.42.42A35.82,35.82,0,0,0,531,681l.26.3-.73-.71a20.32,20.32,0,0,0-2.77-2.49c-.15-.1-.44.19-.33.34.74,1,1.67,1.85,2.51,2.76a27.06,27.06,0,0,0,2.51,2.74c.24.2.69-.27.62-.54a1.23,1.23,0,0,0,.5.33c.23.07.5-.2.59-.38l0-.06C534.27,683.25,534.34,683.08,534.24,683Z"/><path class="cls-16" d="M536,682.41c-1-1.09-2.07-2.15-3.1-3.21a21.48,21.48,0,0,0-3.21-3.11c-.15-.1-.51.2-.42.36a21,21,0,0,0,2.84,3.28c1.05,1.14,2.09,2.29,3.17,3.4C535.54,683.41,536.26,682.7,536,682.41Z"/><path class="cls-16" d="M536.77,681.31a7.5,7.5,0,0,0-1.41-1.7l-1.7-1.82c-1.13-1.21-2.25-2.45-3.45-3.59-.18-.17-.62.28-.46.47,1,1.26,2.07,2.45,3.13,3.66l1.53,1.74a8.66,8.66,0,0,0,1.73,1.79C536.38,682,536.9,681.58,536.77,681.31Z"/><path class="cls-16" d="M537.36,680a.15.15,0,0,0-.08-.06l0,0c.24-.14.47-.49.34-.69a48.61,48.61,0,0,0-4.34-5.13q-2.2-2.47-4.49-4.87l-.08-.14a.21.21,0,0,0-.31-.07c-1-1-1.92-2-2.85-3s-2-2.28-3.05-3.31c-.17-.16-.55.25-.43.43a46.52,46.52,0,0,0,5.89,6.86c.14.14.38,0,.53-.15l1.64,1.86-.33-.35c-.15-.16-.56.25-.42.42,2.42,3.18,4.92,6.39,7.59,9.37.26.28.95-.42.72-.73Z"/><path class="cls-16" d="M514.55,657c-2.16-2.5-4.38-5-6.68-7.41-.17-.18-.61.27-.46.47a81.13,81.13,0,0,0,6.47,7.62C514.12,658,514.79,657.32,514.55,657Z"/><path class="cls-16" d="M514.62,655.06c-.83-1-1.63-1.93-2.44-2.9a25.6,25.6,0,0,0-2.43-2.89c-.17-.15-.58.24-.49.43a18.78,18.78,0,0,0,2.16,3c.81,1,1.67,2.05,2.53,3.05C514.17,656,514.86,655.34,514.62,655.06Z"/><path class="cls-16" d="M515.78,654.81c-.76-1.09-1.78-2-2.62-3.07s-1.59-2.16-2.45-3.17c-.11-.12-.4.17-.34.3a22.18,22.18,0,0,0,2.13,3.31,17.6,17.6,0,0,0,2.71,3.22C515.45,655.59,516,655.06,515.78,654.81Z"/><path class="cls-16" d="M516.77,654.19a39.74,39.74,0,0,0-3-3.9q-1.62-2-3.27-4.05c-.13-.16-.54.23-.41.41q1.47,2.06,3,4.1a39.84,39.84,0,0,0,3.05,4C516.33,655,516.91,654.42,516.77,654.19Z"/><path class="cls-16" d="M518,653.81a11,11,0,0,0-1.55-2.38q-.9-1.26-1.84-2.5c-1.26-1.64-2.54-3.27-4-4.78-.14-.15-.51.23-.39.39,1.19,1.64,2.43,3.24,3.61,4.89q.86,1.2,1.7,2.41a13.63,13.63,0,0,0,1.8,2.52C517.59,654.57,518.08,654.05,518,653.81Z"/><path class="cls-16" d="M519.73,654.17a134.54,134.54,0,0,0-8.46-11.82c-.17-.22-.71.31-.54.55q4.15,6,8.25,12C519.19,655.23,520,654.52,519.73,654.17Z"/><path class="cls-16" d="M515.55,645.71a10.58,10.58,0,0,0-1.23-1.68,13.78,13.78,0,0,0-1.38-1.82c-.14-.13-.41.18-.37.32a7.73,7.73,0,0,0,1,1.84,7.22,7.22,0,0,0,1.4,1.84C515.18,646.38,515.66,645.94,515.55,645.71Z"/><path class="cls-16" d="M520.67,653.18c0-.12-.11-.12-.21-.06q-.75-1-1.49-2.08a10.54,10.54,0,0,0-1.76-2.32c-.16-.13-.45.19-.4.35a10,10,0,0,0,1.43,2.46q.86,1.3,1.74,2.59c.19.28.76-.34.74-.56S520.7,653.31,520.67,653.18Z"/><path class="cls-16" d="M522.51,653.36a.14.14,0,0,0-.21,0c-1.27-1.77-2.41-3.62-3.64-5.42-.11-.16-.48.21-.41.36a32.29,32.29,0,0,0,3.64,6.12c.2.27.67-.29.71-.46A.5.5,0,0,0,522.51,653.36Z"/><path class="cls-16" d="M524.69,653.9a82.76,82.76,0,0,1-5.55-6.46c-.12-.15-.51.22-.42.37a31.66,31.66,0,0,0,5.27,6.79C524.26,654.86,524.95,654.17,524.69,653.9Z"/><path class="cls-16" d="M531.45,662.84l-.17-.29,0,0c-1.41-2.15-2.88-4.26-4.33-6.39-.12-.18-.57.24-.44.44,1.17,1.87,2.33,3.75,3.52,5.61-.08.1-.14.21-.09.28l0,.08c-.84-1.23-1.81-2.39-2.62-3.64-.1-.15-.5.21-.42.36a24.63,24.63,0,0,0,3,4.64c.14.16.49-.11.58-.34a1.43,1.43,0,0,0,.37.53c.2.15.51-.23.47-.41a1.15,1.15,0,0,0-.13-.35C531.38,663.19,531.52,663,531.45,662.84Z"/><path class="cls-16" d="M534.13,661.21a107.21,107.21,0,0,0-6.51-10,70.44,70.44,0,0,0-7.82-9.3.16.16,0,0,0-.17,0l-.17-.11c-.15-.08-.36.21-.33.34a4.94,4.94,0,0,0,1,1.62,9.27,9.27,0,0,0,1.32,1.67.21.21,0,0,0,.24,0c1.68,2.07,3.37,4.13,4.94,6.31q1.54,2.14,3,4.35c-1.09-1.42-2.19-2.84-3.29-4.25-2.2-2.84-4.38-5.74-6.8-8.4a.24.24,0,0,0,0-.08,1.47,1.47,0,0,0-.14-.4c-.06-.12-.1-.26-.25-.3s-.45.2-.43.38a.38.38,0,0,0,0,.16c0,.06-.1.19,0,.24a.13.13,0,0,0,.12,0h0a1.38,1.38,0,0,0,.16.25c2.1,3,4.42,5.91,6.63,8.86q1,1.27,1.88,2.56-1.86-1.77-3.57-3.69-1.07-1.2-2.09-2.44a7.45,7.45,0,0,0-2.24-2.26c-.11-.05-.36.19-.3.3a28,28,0,0,0,1.84,2.43q1,1.36,2.12,2.64c1.34,1.56,2.76,3.05,4.24,4.48,1.41,2.11,2.82,4.22,4.27,6.3.09.13.35,0,.43-.08a1.24,1.24,0,0,0,.27-.26l.22.25c.2.21.77-.36.56-.56l-.15-.15a.37.37,0,0,0,.09-.19h0C533.48,662.3,534.33,661.55,534.13,661.21Zm-2.45-.24c-1-1.42-2-2.8-3.15-4.14a1.07,1.07,0,0,0,.15-.17c1,1.4,2,2.8,3.06,4.19A.42.42,0,0,0,531.68,661Z"/><path class="cls-16" d="M525.4,646.69a14.18,14.18,0,0,0-1.79-2.35c.19-.08.39-.34.32-.49a7.74,7.74,0,0,0-.82-1.22,13.89,13.89,0,0,0-.92-1.3c-.15-.17-.53.23-.46.41a5.1,5.1,0,0,0,.37.73,11.91,11.91,0,0,0-.9-1c-.13-.13-.48.2-.39.34a24.46,24.46,0,0,0,1.86,2.61,17.84,17.84,0,0,0,2.16,2.74C525,647.37,525.51,646.91,525.4,646.69Z"/><path class="cls-16" d="M535.35,658.24a15.53,15.53,0,0,0-1.53-2.5l-1.74-2.69a45,45,0,0,0-3.55-5.31c-.14-.16-.51.22-.44.38a45.48,45.48,0,0,0,3.16,5.27l1.6,2.58c.2.32.39.66.59,1q-1.16-1.81-2.39-3.57a42.14,42.14,0,0,0-4.81-6.09c-.18-.18-.58.26-.45.46,1.33,2.09,3,4,4.38,6s2.86,4.27,4.18,6.48c.22.37,1-.3.79-.59l-.87-1.43a5.54,5.54,0,0,0,.44.53C534.92,659,535.45,658.49,535.35,658.24Z"/><path class="cls-16" d="M536.38,656.78c-.93-1.39-2-2.69-2.92-4.08s-1.75-2.84-2.74-4.16c-.13-.18-.54.24-.47.41a30.51,30.51,0,0,0,2.46,4.27,39.73,39.73,0,0,0,3,4.26C535.93,657.76,536.59,657.08,536.38,656.78Z"/><path class="cls-16" d="M536.35,655a37.17,37.17,0,0,1-4-5.51c-.12-.22-.57.17-.47.35a23.73,23.73,0,0,0,3.85,5.74C536,655.76,536.55,655.19,536.35,655Z"/><path class="cls-16" d="M667.58,612c-.3-.39-.63-.8-1-1.2-2.24-3.62-5.63-6.53-8.7-9.4a96.59,96.59,0,0,0-8-6.82,66.6,66.6,0,0,0-8.12-5.43c-1.37-.75-2.78-1.44-4.19-2.11a92.17,92.17,0,0,0-11.68-4.62,100.21,100.21,0,0,0-49.39-2.77,103.5,103.5,0,0,0-25.92,8.88l-.17-.06c-.6-3.64-1.18-7.28-1.77-10.92-.33-2-.65-4-1-6.07-.22-1.34-.51-2.76-1.92-3.28-.37-.14-1.19-.05-1.39.38q-4.69,10.14-8.52,20.65A210.13,210.13,0,0,0,529.32,610h-.13c-1.14-.1-.32,1.22.52,1.22,3.62,0,7.27.31,10.89.47q5.19.23,10.39.41,10.57.37,21.15.56c.35,0,1.6-.56,1-1l-12.88-11.2c5.2-4.54,12.15-6.48,18.82-7.65A113.32,113.32,0,0,1,602.18,591a84.61,84.61,0,0,1,21.64,3.41,77.13,77.13,0,0,1,19.52,9.23,32.27,32.27,0,0,1,8.06,7.64c1.24,1.64,2.44,3.32,3.66,5l2,2.7c.26.35.5.78.79,1.14a1.22,1.22,0,0,0,.87.65h0l.18,0a.85.85,0,0,0,.38,0,1.21,1.21,0,0,0,.52-.26,2.34,2.34,0,0,0,.27-.28c2.56-1.81,5.15-3.56,7.56-5.58.3-.25.9-.61.92-1.06S667.89,612.45,667.58,612Zm-8.31,7.09c-.12-.19-.23-.38-.29-.46l-.91-1.24L656.23,615c-1.15-1.56-2.31-3.11-3.48-4.65a36.75,36.75,0,0,0-9-8.13,66.93,66.93,0,0,0-15.6-7.84c-15.06-5.28-31.56-5.48-47.19-3-8.08,1.27-15.82,3.58-22.51,8.42-.29.21-.06.55.31.79-.25.23-.36.52-.11.73l11.7,10.13q-9.46-.16-18.91-.46c-6.75-.21-13.56-.28-20.3-.79,2-7,4-14,6.5-20.81q3.53-9.78,7.84-19.25a12,12,0,0,1,.67,3.38l.93,5.72c.61,3.74,1.23,7.48,1.82,11.22.11.72,1.67.27,1.77-.31l0-.21a.92.92,0,0,0,.61,0c14.38-8,31.25-11.39,47.62-10.77a96.76,96.76,0,0,1,24.12,4,92.83,92.83,0,0,1,11.33,4.23,61.35,61.35,0,0,1,9.65,5.17s8.22,6,12,9.54a87.44,87.44,0,0,1,6.8,6.77.39.39,0,0,0-.08.66c.65.73,1.41,1.36,2.1,2.06a18.21,18.21,0,0,1,1.41,2.68c-.43.33-1,.71-1.05.77A50.82,50.82,0,0,1,659.27,619.13Z"/><path class="cls-16" d="M518.85,727.17c.3.39.63.8,1,1.2,2.24,3.62,5.63,6.53,8.7,9.4a96.61,96.61,0,0,0,8,6.82,66.6,66.6,0,0,0,8.12,5.43c1.37.75,2.78,1.44,4.19,2.11a92.18,92.18,0,0,0,11.68,4.62,100.21,100.21,0,0,0,49.39,2.77,103.5,103.5,0,0,0,25.91-8.88l.17.06c.6,3.64,1.18,7.28,1.77,10.92.33,2,.65,4,1,6.07.22,1.34.51,2.76,1.92,3.28.37.14,1.19.05,1.39-.38q4.69-10.14,8.52-20.65a210.14,210.14,0,0,0,6.56-20.71h.13c1.14.1.32-1.22-.52-1.22-3.62,0-7.27-.31-10.89-.47q-5.19-.23-10.39-.41-10.57-.37-21.15-.56c-.35,0-1.6.56-1,1l12.88,11.2c-5.2,4.54-12.15,6.48-18.82,7.65a113.32,113.32,0,0,1-23.06,1.69,84.61,84.61,0,0,1-21.64-3.41,77.13,77.13,0,0,1-19.52-9.23A32.27,32.27,0,0,1,535,727.9c-1.24-1.64-2.44-3.32-3.66-5l-2-2.7c-.26-.35-.5-.78-.79-1.14a1.22,1.22,0,0,0-.87-.65h0l-.18,0a.85.85,0,0,0-.38,0,1.21,1.21,0,0,0-.52.26,2.36,2.36,0,0,0-.27.28c-2.56,1.81-5.15,3.56-7.56,5.58-.3.25-.9.61-.92,1.06S518.53,726.77,518.85,727.17Zm8.31-7.09c.12.19.23.38.29.46l.91,1.24,1.83,2.47c1.15,1.56,2.3,3.11,3.48,4.65a36.75,36.75,0,0,0,9,8.13,66.93,66.93,0,0,0,15.6,7.84c15.06,5.28,31.56,5.48,47.19,3,8.08-1.27,15.82-3.58,22.51-8.42.29-.21.06-.55-.31-.79.25-.23.36-.52.11-.73l-11.7-10.13q9.46.16,18.91.46c6.75.21,13.56.28,20.3.79-2,7-4,14-6.5,20.81q-3.53,9.78-7.84,19.25a12,12,0,0,1-.67-3.38l-.93-5.72c-.61-3.74-1.23-7.48-1.82-11.22-.11-.72-1.67-.27-1.77.31l0,.21a.92.92,0,0,0-.61,0c-14.38,8-31.25,11.39-47.62,10.77a96.76,96.76,0,0,1-24.12-4A92.84,92.84,0,0,1,552,751.92a61.35,61.35,0,0,1-9.65-5.17s-8.22-6-12-9.54a87.41,87.41,0,0,1-6.8-6.77.39.39,0,0,0,.08-.66c-.65-.73-1.41-1.36-2.1-2.06a18.21,18.21,0,0,1-1.41-2.68c.43-.33,1-.71,1.05-.77A50.82,50.82,0,0,1,527.16,720.09Z"/></svg>