<svg id="Object" xmlns="http://www.w3.org/2000/svg" viewBox="0 0 1117.89 1117.9"><defs><style>.cls-1{fill:#a4a5a8;}.cls-2{fill:#eff0f0;}.cls-3{fill:#ced0d1;}.cls-11,.cls-4{fill:#fff;}.cls-5{fill:#69354a;}.cls-6{fill:#6c6e6f;}.cls-7{fill:#424143;}.cls-8{fill:#616e7d;}.cls-9{fill:none;}.cls-10{fill:#29275f;}.cls-10,.cls-12{opacity:0.66;}.cls-11{opacity:0.92;}.cls-12,.cls-13{fill:#aad4c8;}.cls-14,.cls-15{fill:#262424;}.cls-15{opacity:0.3;}.cls-16{fill:#3d6d9d;}.cls-17{fill:#4f5d6e;}.cls-18{fill:#c1b6af;}.cls-19{fill:#fffff1;}.cls-20{fill:#0d121f;}.cls-21{fill:#222b3b;}.cls-22{fill:#a24135;}</style></defs><title>logo-1</title><path class="cls-1" d="M1122,560.75c0,308.7-250.25,559-559,559S4.11,869.45,4.11,560.75,254.35,1.8,563,1.8,1122,252.06,1122,560.75Z" transform="translate(-4.11 -1.8)"/><path class="cls-2" d="M897.26,504c0-175-141.82-316.77-316.78-316.77S263.72,329,263.72,504,405.54,820.75,580.48,820.75,897.26,678.92,897.26,504Z" transform="translate(-4.11 -1.8)"/><path class="cls-3" d="M580.48,820.75c-174.94,0-316.76-141.82-316.76-316.77S405.54,187.21,580.48,187.21h0V123.73h0c-210,0-380.24,170.25-380.24,380.25S370.48,884.23,580.48,884.23h0V820.75Z" transform="translate(-4.11 -1.8)"/><path class="cls-4" d="M263.72,504c0,175,141.82,316.77,316.76,316.77h0V187.21h0C405.54,187.21,263.72,329,263.72,504Z" transform="translate(-4.11 -1.8)"/><path class="cls-5" d="M597.53,236.94a14.71,14.71,0,0,1-14.71,14.71h-4.66a14.71,14.71,0,0,1-14.71-14.71V178.56a14.71,14.71,0,0,1,14.71-14.71h4.66a14.71,14.71,0,0,1,14.71,14.71Z" transform="translate(-4.11 -1.8)"/><path class="cls-6" d="M313.45,486.93a14.72,14.72,0,0,1,14.71,14.73v4.65A14.72,14.72,0,0,1,313.45,521H255.08a14.72,14.72,0,0,1-14.72-14.72v-4.65a14.73,14.73,0,0,1,14.72-14.73Z" transform="translate(-4.11 -1.8)"/><path class="cls-6" d="M847.54,521a14.72,14.72,0,0,1-14.71-14.72v-4.65a14.72,14.72,0,0,1,14.71-14.73h58.37a14.72,14.72,0,0,1,14.72,14.73v4.65A14.72,14.72,0,0,1,905.91,521Z" transform="translate(-4.11 -1.8)"/><path class="cls-6" d="M597.53,236.94a14.71,14.71,0,0,1-14.71,14.71h-4.66a14.71,14.71,0,0,1-14.71-14.71V178.56a14.71,14.71,0,0,1,14.71-14.71h4.66a14.71,14.71,0,0,1,14.71,14.71Z" transform="translate(-4.11 -1.8)"/><path class="cls-6" d="M563.46,771a14.71,14.71,0,0,1,14.71-14.72h4.66A14.72,14.72,0,0,1,597.53,771v58.38a14.71,14.71,0,0,1-14.71,14.7h-4.66a14.7,14.7,0,0,1-14.71-14.7Z" transform="translate(-4.11 -1.8)"/><path class="cls-7" d="M618.82,532a14.73,14.73,0,0,1,0,20.81l-3.3,3.29a14.72,14.72,0,0,1-20.82,0L403.83,365.2a14.72,14.72,0,0,1,0-20.83l3.29-3.29a14.7,14.7,0,0,1,20.8,0Z" transform="translate(-4.11 -1.8)"/><path class="cls-7" d="M567.94,556.09a14.7,14.7,0,0,1-20.81,0l-3.29-3.29a14.7,14.7,0,0,1,0-20.81l141-141a14.71,14.71,0,0,1,20.81,0l3.29,3.3a14.71,14.71,0,0,1,0,20.81Z" transform="translate(-4.11 -1.8)"/><path class="cls-8" d="M800.64,718.84h49.63a9.26,9.26,0,0,0,9.26-9.28V582.75a9.26,9.26,0,0,0-9.26-9.27H805.54a179.36,179.36,0,0,0-22.31-35.16c1.65-3.88,22.31-52.33,37.64-82.54,6.25-3.68-68.91-42.11-130.63,15.17a294.94,294.94,0,0,0-112.11-21.66c-134.27,0-243.11,86-243.11,192.13,0,2.89.1,5.76.27,8.61-1.24,4.6-4.29,8.81-8.78,12.23A35.19,35.19,0,0,1,320,666a15.8,15.8,0,0,0,1.54-6.84,16.59,16.59,0,0,0-5.68-12.33,20.35,20.35,0,0,0-26.52,0,16.52,16.52,0,0,0-5.71,12.33,15.82,15.82,0,0,0,1.56,6.84,34.26,34.26,0,0,1-6.56-3.74c-6-4.57-9.43-10.56-9.43-17h-6.7c0,8.92,4.78,16.84,12.08,22.34s17.17,8.82,28,8.83,20.7-3.31,28-8.83a34,34,0,0,0,5.83-5.78c5.21,39,25.22,74.56,55.5,103.06l-9.32,94.23a10.22,10.22,0,0,0,7.34,10.84l33.46,9.66a10.24,10.24,0,0,0,11.93-5.13l32.05-62a301.75,301.75,0,0,0,215.4,2.47l30.79,59.57a10.23,10.23,0,0,0,11.92,5.13l33.44-9.66a10.2,10.2,0,0,0,7.34-10.84l-8.7-88A195.06,195.06,0,0,0,800.64,718.84ZM311.35,666.49a13.64,13.64,0,0,1-17.61,0,9.54,9.54,0,0,1,0-14.66,13.66,13.66,0,0,1,17.61,0,9.49,9.49,0,0,1,0,14.66Zm376.71-160-12.28,28.68a4.22,4.22,0,0,1-2.32,2.28,4.27,4.27,0,0,1-3.28,0l-14.33-6.13h-.06l-.17-.08-.94-.38c-.92-.36-2.34-.91-4.25-1.58-3.76-1.34-9.36-3.18-16.3-5a211.74,211.74,0,0,0-53.33-7.34c-19.79,0-39.92,3.45-55.19,7.1a256.8,256.8,0,0,0-26.49,7.66l-.09,0L484.44,537a4.28,4.28,0,0,1-5.49-2.52l-10.84-29.25a4.28,4.28,0,0,1,2.52-5.49l14.63-5.41a287.11,287.11,0,0,1,29.52-8.69c17.51-4.24,41-8.55,66-8.57a251.4,251.4,0,0,1,62.79,8.46,222.51,222.51,0,0,1,27.7,9.09l.18.07,14.33,6.12a4.25,4.25,0,0,1,2.3,2.34A4.31,4.31,0,0,1,688.06,506.47Z" transform="translate(-4.11 -1.8)"/><path class="cls-9" d="M293.74,651.83a9.54,9.54,0,0,0,0,14.66,13.64,13.64,0,0,0,17.61,0,9.49,9.49,0,0,0,0-14.66,13.66,13.66,0,0,0-17.61,0Z" transform="translate(-4.11 -1.8)"/><path class="cls-10" d="M499.38,677.59A84.59,84.59,0,1,0,584,593,84.69,84.69,0,0,0,499.38,677.59Zm150.52,0a65,65,0,1,1-65-65A65,65,0,0,1,649.89,677.59Z" transform="translate(-4.11 -1.8)"/><path class="cls-11" d="M580.56,727.21H588a4.06,4.06,0,0,0,4.05-4.06v-6.91a38,38,0,0,0,15.56-5.64q10.43-6.88,10.67-19a19,19,0,0,0-4.2-12.82q-7.05-8.41-22-10.52v-14a22.62,22.62,0,0,1,5.09,3.34,5.31,5.31,0,0,0,3.48,1.26,7,7,0,0,0,2.52-.74h0l8.35-5.23a3.33,3.33,0,0,0,1.74-2.77,3,3,0,0,0-1.11-2.35,33.54,33.54,0,0,0-20.1-11v-7.89a4.07,4.07,0,0,0-4.05-4.07h-7.45a4.06,4.06,0,0,0-4.06,4.07v7.68a36.81,36.81,0,0,0-10.42,2.93c-10,4.56-14.93,11.39-14.77,20.44a19.68,19.68,0,0,0,4,11.83q6.53,8.76,21.19,11v17.5a30.15,30.15,0,0,1-12-8.34,4,4,0,0,0-3.31-1.6l-2.23.64h0l-7.59,4.46a3.28,3.28,0,0,0-1.89,3l.88,2.16a37.52,37.52,0,0,0,8,7.93,39.44,39.44,0,0,0,18.16,7.78v6.9A4.06,4.06,0,0,0,580.56,727.21Zm11.5-42.6c4,1.27,6.05,3.6,6,7a8.37,8.37,0,0,1-4.42,7.44l-1.63.86ZM571.6,660c0-2.5,1.42-4.46,4.33-5.85l.58-.22v12.42C573.27,665.06,571.61,662.95,571.6,660Z" transform="translate(-4.11 -1.8)"/><path class="cls-12" d="M516.83,677.59a65,65,0,1,0,65-65A65,65,0,0,0,516.83,677.59Zm74.24-48.73v7.89a33.54,33.54,0,0,1,20.1,11,3,3,0,0,1,1.11,2.35,3.33,3.33,0,0,1-1.74,2.77l-8.35,5.23h0a7,7,0,0,1-2.52.74,5.31,5.31,0,0,1-3.48-1.26,22.62,22.62,0,0,0-5.09-3.34v14q15,2.1,22,10.52a19,19,0,0,1,4.2,12.82q-.24,12.11-10.67,19a38,38,0,0,1-15.56,5.64v6.91a4.06,4.06,0,0,1-4.05,4.06h-7.45a4.06,4.06,0,0,1-4.06-4.06v-6.9a39.44,39.44,0,0,1-18.16-7.78,37.52,37.52,0,0,1-8-7.93l-.88-2.16a3.28,3.28,0,0,1,1.89-3l7.59-4.46h0l2.23-.64a4,4,0,0,1,3.31,1.6,30.15,30.15,0,0,0,12,8.34v-17.5q-14.64-2.25-21.19-11a19.68,19.68,0,0,1-4-11.83c-.16-9,4.74-15.89,14.77-20.44a36.81,36.81,0,0,1,10.42-2.93v-7.68a4.06,4.06,0,0,1,4.06-4.07H587A4.07,4.07,0,0,1,591.07,628.86Z" transform="translate(-4.11 -1.8)"/><path class="cls-13" d="M666.11,501.78c-1.24-.48-3-1.16-5.23-2-4.46-1.6-10.84-3.7-18.71-5.79a243.42,243.42,0,0,0-61.36-8.38c-24,0-46.94,4.19-64,8.34a277.9,277.9,0,0,0-28.56,8.39l-10.63,3.93,7.88,21.24,10.62-3.94.09,0a264.9,264.9,0,0,1,27.46-8c15.72-3.74,36.4-7.33,57.16-7.33a220.19,220.19,0,0,1,55.54,7.63c7.18,1.91,13,3.83,16.94,5.23,2,.7,3.54,1.29,4.56,1.69l1,.42.14.06.16.08h0l10.39,4.44,8.9-20.82-10.4-4.45-.57-.22Z" transform="translate(-4.11 -1.8)"/><path class="cls-4" d="M670.19,537.39a4.27,4.27,0,0,0,3.28,0,4.22,4.22,0,0,0,2.32-2.28l12.28-28.68a4.31,4.31,0,0,0,0-3.27,4.25,4.25,0,0,0-2.3-2.34l-14.33-6.12-.18-.07a222.51,222.51,0,0,0-27.7-9.09,251.4,251.4,0,0,0-62.79-8.46c-25,0-48.53,4.33-66,8.57a287.11,287.11,0,0,0-29.52,8.69l-14.63,5.41a4.28,4.28,0,0,0-2.52,5.49L479,534.52a4.28,4.28,0,0,0,5.49,2.52l14.6-5.41.09,0a256.8,256.8,0,0,1,26.49-7.66c15.27-3.65,35.4-7.1,55.19-7.1a211.74,211.74,0,0,1,53.33,7.34c6.94,1.85,12.54,3.69,16.3,5,1.91.67,3.33,1.21,4.25,1.58l.94.38.17.08h.06Zm-16.91-16.23c-3.95-1.41-9.76-3.32-16.94-5.23a220.19,220.19,0,0,0-55.54-7.63c-20.76,0-41.44,3.58-57.16,7.33a264.9,264.9,0,0,0-27.46,8l-.09,0-10.62,3.94-7.88-21.24,10.63-3.93A277.9,277.9,0,0,1,516.79,494c17.08-4.15,40-8.32,64-8.34A243.42,243.42,0,0,1,642.17,494c7.87,2.1,14.25,4.19,18.71,5.79,2.24.8,4,1.48,5.23,2l1.43.58.57.22,10.4,4.45-8.9,20.82-10.39-4.44h0l-.16-.08-.14-.06-1-.42C656.82,522.45,655.28,521.86,653.28,521.16Z" transform="translate(-4.11 -1.8)"/><path class="cls-4" d="M743.61,568.55c14.86-4.67,30.91,4.29,35.86,20s-3.11,32.26-18,36.93-30.93-4.29-35.86-20S728.73,573.23,743.61,568.55Z" transform="translate(-4.11 -1.8)"/><path class="cls-14" d="M748.49,573.84c11.62-3.64,24.17,3.36,28,15.65s-2.43,25.22-14.06,28.88-24.18-3.36-28-15.66S736.86,577.49,748.49,573.84Z" transform="translate(-4.11 -1.8)"/><path class="cls-15" d="M781,896c0,8.84-103.18,16-216.94,16S369,904.84,369,896s81.29-16,195.06-16S781,887.16,781,896Z" transform="translate(-4.11 -1.8)"/><path class="cls-8" d="M551.27,334.79A83.4,83.4,0,1,1,495,438.44,83.41,83.41,0,0,1,551.27,334.79Z" transform="translate(-4.11 -1.8)"/><path class="cls-13" d="M555.54,349.23a68.34,68.34,0,1,1-46.12,84.93A68.35,68.35,0,0,1,555.54,349.23Z" transform="translate(-4.11 -1.8)"/><path class="cls-16" d="M588,376.56q-15-4.49-24.67-.74T551,388.4A18.55,18.55,0,0,0,553,404q4.45,7.35,17.4,14.16t16,10.18a7.79,7.79,0,0,1,1.67,8q-3.12,10.41-18.46,5.81-16.38-4.91-14.55-17.9l-17.46-3.73q-2.79,25,28.11,34.22a44.64,44.64,0,0,0,24.5.77q11.72-3.06,15-14.15,2.85-9.49-1.56-17.27t-16.83-14.27q-12.44-6.47-16.2-9.79c-2.52-2.2-3.32-4.77-2.44-7.72q2.16-7.21,15.72-3.16T595.78,401l17.43,4.56Q617.67,385.45,588,376.56Z" transform="translate(-4.11 -1.8)"/><polygon class="cls-16" points="576.01 374.14 592.24 379.01 596.68 364.24 580.43 359.37 576.01 374.14"/><rect class="cls-16" x="556.31" y="450.66" width="15.42" height="16.96" transform="translate(-41.98 865.57) rotate(-73.29)"/><path class="cls-4" d="M632.95,339.6c0,6.72,2.53,16.14,5.39,19s12,4.73,18.34,4.73c-6.54,0-16.21,2.6-18.67,5.06s-5.06,12.13-5.06,18.68c0-6.55-2.89-16.51-5.05-18.68s-12.12-5.06-18.68-5.06c6.55,0,16.19-2.56,18.68-5.05S632.95,346.16,632.95,339.6Z" transform="translate(-4.11 -1.8)"/><path class="cls-4" d="M617.11,373.84c0,2.39.9,5.75,1.92,6.77s4.26,1.69,6.53,1.69c-2.33,0-5.78.92-6.65,1.8s-1.8,4.31-1.8,6.65c0-2.33-1-5.88-1.8-6.65s-4.32-1.8-6.64-1.8c2.33,0,5.76-.91,6.64-1.8S617.11,376.17,617.11,373.84Z" transform="translate(-4.11 -1.8)"/><path class="cls-4" d="M648,385.16c0,3.32,1.25,8,2.66,9.38s5.9,2.34,9.07,2.34c-3.24,0-8,1.28-9.23,2.5s-2.5,6-2.5,9.22c0-3.24-1.42-8.16-2.49-9.22s-6-2.5-9.23-2.5c3.23,0,8-1.27,9.23-2.5S648,388.4,648,385.16Z" transform="translate(-4.11 -1.8)"/><path class="cls-17" d="M751.63,583.62a13.47,13.47,0,1,0,16.75,9.07A13.47,13.47,0,0,0,751.63,583.62Zm6.94,23.31a10.86,10.86,0,1,1,7.31-13.5A10.86,10.86,0,0,1,758.57,606.94Z" transform="translate(-4.11 -1.8)"/><circle class="cls-18" cx="755.47" cy="596.53" r="10.86" transform="translate(-142.87 238.45) rotate(-16.57)"/><circle class="cls-19" cx="755.47" cy="596.53" r="9.81" transform="translate(-142.87 238.45) rotate(-16.57)"/><path class="cls-20" d="M758.87,606.79a.33.33,0,0,1-.22.41h0a.33.33,0,0,1-.41-.22l-.53-1.77a.33.33,0,0,1,.22-.41h0a.33.33,0,0,1,.41.22Z" transform="translate(-4.11 -1.8)"/><path class="cls-21" d="M746.73,598.66a.33.33,0,0,1,.41.22h0a.33.33,0,0,1-.22.41l-1.77.53a.33.33,0,0,1-.41-.22h0a.33.33,0,0,1,.22-.41Z" transform="translate(-4.11 -1.8)"/><path class="cls-20" d="M765.7,593a.33.33,0,0,1,.41.22h0a.33.33,0,0,1-.22.41l-1.77.53a.33.33,0,0,1-.41-.22h0a.33.33,0,0,1,.22-.41Z" transform="translate(-4.11 -1.8)"/><path class="cls-20" d="M753.23,587.86a.33.33,0,0,1-.22.41h0a.33.33,0,0,1-.41-.22l-.53-1.77a.33.33,0,0,1,.22-.41h0a.33.33,0,0,1,.41.22Z" transform="translate(-4.11 -1.8)"/><path class="cls-22" d="M761.83,600.63l-6.27-4-.24.37,6.27,4a.22.22,0,1,0,.24-.37Z" transform="translate(-4.11 -1.8)"/><circle class="cls-21" cx="755.45" cy="596.46" r="1.15" transform="translate(-142.85 238.44) rotate(-16.57)"/><path class="cls-21" d="M762.93,594l-7.13,2.12.13.43,7.13-2.12a.22.22,0,0,0-.13-.43Z" transform="translate(-4.11 -1.8)"/><path class="cls-21" d="M755.82,596.05a.48.48,0,0,1-.32.6h0a.48.48,0,0,1-.6-.32l-2-6.83a.48.48,0,0,1,.32-.6h0a.48.48,0,0,1,.6.32Z" transform="translate(-4.11 -1.8)"/><circle class="cls-20" cx="755.45" cy="596.46" r="0.78" transform="translate(-142.85 238.44) rotate(-16.57)"/></svg>