<svg width="46" height="80" viewBox="0 0 46 80" fill="none" xmlns="http://www.w3.org/2000/svg">
<path d="M36.2045 0.166155C33.3031 1.455 30.5519 6.63808 27.4964 16.5746C26.7522 18.986 26.2411 20.7737 25.0271 25.2223C24.1627 28.3959 21.5639 29.7909 21.5 29.6662C21.4587 29.583 21.8721 28.0659 21.5 26.6662C17.2004 10.4379 16.1348 2.924 12.9063 0.734356C10.8016 -0.69307 8.61798 0.207731 6.63355 3.31203C3.30738 8.52283 0.871946 19.4849 0.191678 32.3179C0.0375839 35.1866 0 36.7249 0 40.1479C0 45.5805 0.202953 50.1122 0.661476 54.9072C1.93181 68.2668 4.96483 77.455 8.79463 79.5615C11.1774 80.8781 13.8196 79.2012 16.1498 74.9189C17.0631 73.242 17.8335 71.4543 18.7919 68.8073C19.9984 65.4951 18.602 61.8365 20.5 54.9072C21.1615 52.482 21.4737 51.6662 21.5 51.6662C21.5301 51.6662 22.9337 52.5575 23.2231 53.6662C23.8695 56.1468 26.8386 61.3514 27.5076 63.5549C27.7602 64.385 29.4338 66.9231 29 68.8073C28.2364 72.1235 24.5 75 25 75.5C25.5 76 29.5 75 30 75.5C30.182 75.682 35.0087 79.2329 35.8738 79.6724C36.0918 79.7832 36.6029 79.8387 37.1892 79.8387C37.9898 79.8387 38.2378 79.7832 38.6926 79.5199C41.1356 78.1341 43.2215 74.2676 44.9278 67.9897C45.4503 66.0629 42.9915 64.1104 41.4358 60.6662C40.5663 58.741 40.9779 55.3183 39.9358 53.6662C38.2148 50.9375 36.9358 50.1662 36.4358 49.1662C35.3178 46.9301 36.3462 44.6662 35.4358 41.3387C34.7661 38.8909 33.5185 38.3419 33.4358 36.1662C33.318 33.0406 36.4358 30.1662 38.4358 26.6662C39.9289 24.4265 41.4388 22.1231 43 20C44.5757 17.8572 45.8636 16 45.8636 14.2741C45.5066 12.5002 44.7586 9.67308 44.2663 8.24566C42.8982 4.22669 41.1205 1.51043 39.0872 0.346318C38.4408 -0.0140026 36.8547 -0.124874 36.2045 0.166155ZM12.4102 16.7825C13.673 17.7664 14.9509 20.0115 16.2062 23.4484C16.6534 24.668 17.3224 26.6913 17.7584 28.1465C18.3071 29.9896 18.7919 39.9262 18.7919 40.0648C18.7919 40.2865 18.6604 49.0589 18.0778 50.9853C16.2287 57.0553 14.5187 60.8941 12.9101 62.6126C12.1509 63.4163 11.7036 63.6381 10.7866 63.6381C10.0725 63.6381 9.90335 63.5965 9.53127 63.3193C7.31382 61.6702 5.6902 56.3347 4.98362 48.3937C4.38228 41.6169 4.49503 35.1866 5.32188 29.1997C6.26899 22.3259 7.9753 17.7803 10.08 16.5192C10.3168 16.3806 10.6287 16.339 11.1812 16.3806C11.8276 16.4222 12.0268 16.4915 12.4102 16.7825ZM37.1892 16.7825C38.4182 17.42 35.5824 20.3387 35 22.8387C33.6846 28.4851 26.4961 32.8295 26 41.3387C25.4964 50.0002 39.3077 59.2272 37 61.5C36.4438 62.0405 35.6577 63.6381 35 63.6381C33.8349 63.6381 33.1689 63.1204 32 61C30.771 58.7826 25.4846 56.7938 24 51.6662C23.0679 48.451 22.0113 40.374 22 40.1662C21.9887 39.9444 23.7408 33.7438 24.5 31.1662C27.0632 22.4353 31.3239 17.6417 33.5 16.5192C33.9886 16.2697 36.7082 16.533 37.1892 16.7825Z" fill="black"/>
</svg>
