<svg width="200" height="200" viewBox="0 0 200 200" fill="none" xmlns="http://www.w3.org/2000/svg">
<path d="M99.8129 195.626C152.729 195.626 195.626 152.729 195.626 99.8129C195.626 46.8969 152.729 4 99.8129 4C46.8969 4 4 46.8969 4 99.8129C4 152.729 46.8969 195.626 99.8129 195.626Z" fill="url(#paint0_radial)" stroke="black" stroke-width="8" stroke-linecap="round" stroke-linejoin="round"/>
<path d="M196 196L167.93 167.93" stroke="black" stroke-width="8" stroke-linecap="round" stroke-linejoin="round"/>
<path d="M135.259 55.831C126.719 57.242 118.622 62.9161 109.629 73.794C107.439 76.4338 105.934 78.3909 102.361 83.2609C99.8172 86.7352 99.4411 87.1752 99.253 87.0386C99.1313 86.9476 98.1468 85.6277 97.0517 84.0954C84.3972 66.3296 76.1895 58.8501 66.6875 56.4531C60.493 54.8904 54.0662 55.8765 48.2256 59.2749C38.436 64.9794 31.2681 76.98 29.2659 91.0287C28.8124 94.1692 28.7018 95.8532 28.7018 99.6005C28.7018 105.548 29.2991 110.509 30.6486 115.758C34.3875 130.383 43.3142 140.442 54.5861 142.748C61.5991 144.189 69.3755 142.354 76.2337 137.666C78.9217 135.83 81.1893 133.873 84.0101 130.975C87.5608 127.349 90.1603 124.148 95.7465 116.562C97.6933 113.907 99.3636 111.738 99.4411 111.738C99.5296 111.738 100.293 112.739 101.145 113.953C103.047 116.668 107.693 122.813 109.662 125.225C118.733 136.315 125.613 141.231 134.285 142.869C134.927 142.991 136.431 143.051 138.157 143.051C140.513 143.051 141.243 142.991 142.582 142.703C149.772 141.185 155.911 136.953 160.933 130.08C165.988 123.147 169.141 114.226 170.037 104.304C170.247 101.952 170.214 95.7622 169.97 93.3803C169.107 84.8691 166.928 77.1924 163.687 71.2755C162.636 69.3336 160.435 66.2386 158.986 64.676C154.96 60.2762 149.727 57.3026 143.743 56.0283C141.84 55.6338 137.172 55.5124 135.259 55.831ZM65.2274 74.0215C68.9441 75.0987 72.705 77.5565 76.3996 81.319C77.716 82.6541 79.6849 84.8691 80.9681 86.4621C82.5831 88.4799 90.7024 99.3578 90.7024 99.5095C90.7024 99.7523 83.6229 109.356 81.9083 111.465C76.466 118.11 71.433 122.312 66.6986 124.193C64.4641 125.073 63.1478 125.316 60.4487 125.316C58.347 125.316 57.8492 125.271 56.7541 124.967C50.2278 123.162 45.4491 117.321 43.3695 108.628C41.5997 101.209 41.9315 94.1692 44.3651 87.6151C47.1526 80.0901 52.1746 75.1139 58.3691 73.7333C59.066 73.5816 59.9841 73.5361 61.6102 73.5816C63.5128 73.6271 64.0991 73.7029 65.2274 74.0215ZM141.143 73.7333C144.761 74.4312 147.836 76.3276 150.446 79.4681C155.302 85.2939 157.625 95.5953 156.165 104.911C154.683 114.393 149.362 122.069 142.57 124.558C140.933 125.149 139.484 125.392 137.548 125.392C134.119 125.392 131.365 124.451 127.925 122.13C124.308 119.703 120.823 116.198 116.454 110.585C113.711 107.065 108.235 99.6764 108.202 99.4488C108.169 99.2061 113.357 91.939 115.591 89.1171C123.135 79.5591 129.097 74.9622 135.502 73.7333C136.94 73.4602 139.728 73.4602 141.143 73.7333Z" fill="black"/>
<defs>
<radialGradient id="paint0_radial" cx="0" cy="0" r="1" gradientUnits="userSpaceOnUse" gradientTransform="translate(175.026 4.00001) rotate(126.939) scale(239.149)">
<stop stop-color="#FBFF40"/>
<stop offset="0.586971" stop-color="#8FF76A"/>
<stop offset="1" stop-color="#00CF46"/>
</radialGradient>
</defs>
</svg>
