<svg width="200" height="200" viewBox="0 0 200 200" fill="none" xmlns="http://www.w3.org/2000/svg">
<path d="M89.3334 174.667C136.462 174.667 174.667 136.462 174.667 89.3334C174.667 42.205 136.462 4 89.3334 4C42.205 4 4 42.205 4 89.3334C4 136.462 42.205 174.667 89.3334 174.667Z" fill="url(#paint0_radial)" stroke="black" stroke-width="8" stroke-linecap="round" stroke-linejoin="round"/>
<path d="M196 196L149.6 149.6" stroke="black" stroke-width="8" stroke-linecap="round" stroke-linejoin="round"/>
<path d="M55.0399 91.68C61.3139 91.68 66.3999 86.5939 66.3999 80.32C66.3999 74.046 61.3139 68.96 55.0399 68.96C48.766 68.96 43.6799 74.046 43.6799 80.32C43.6799 86.5939 48.766 91.68 55.0399 91.68Z" stroke="black" stroke-width="8" stroke-linecap="round" stroke-linejoin="round"/>
<path d="M55.0399 46.24V68.96" stroke="black" stroke-width="8" stroke-linecap="round" stroke-linejoin="round"/>
<path d="M55.0399 91.68V137.12" stroke="black" stroke-width="8" stroke-linecap="round" stroke-linejoin="round"/>
<path d="M89.12 125.76C95.394 125.76 100.48 120.674 100.48 114.4C100.48 108.126 95.394 103.04 89.12 103.04C82.8461 103.04 77.76 108.126 77.76 114.4C77.76 120.674 82.8461 125.76 89.12 125.76Z" stroke="black" stroke-width="8" stroke-linecap="round" stroke-linejoin="round"/>
<path d="M89.12 46.24V103.04" stroke="black" stroke-width="8" stroke-linecap="round" stroke-linejoin="round"/>
<path d="M89.12 125.76V137.12" stroke="black" stroke-width="8" stroke-linecap="round" stroke-linejoin="round"/>
<path d="M123.2 77.2C129.474 77.2 134.56 72.1139 134.56 65.84C134.56 59.566 129.474 54.48 123.2 54.48C116.926 54.48 111.84 59.566 111.84 65.84C111.84 72.1139 116.926 77.2 123.2 77.2Z" stroke="black" stroke-width="8" stroke-linecap="round" stroke-linejoin="round"/>
<path d="M123.2 46.24V51.92" stroke="black" stroke-width="8" stroke-linecap="round" stroke-linejoin="round"/>
<path d="M123.04 78.24L123.04 137.12" stroke="black" stroke-width="8" stroke-linecap="round" stroke-linejoin="round"/>
<defs>
<radialGradient id="paint0_radial" cx="0" cy="0" r="1" gradientUnits="userSpaceOnUse" gradientTransform="translate(156.32 4.00001) rotate(126.939) scale(212.992)">
<stop stop-color="#FBFF40"/>
<stop offset="0.586971" stop-color="#8FF76A"/>
<stop offset="1" stop-color="#00CF46"/>
</radialGradient>
</defs>
</svg>
