<svg width="239" height="292" viewBox="0 0 239 292" fill="none" xmlns="http://www.w3.org/2000/svg">
<g clip-path="url(#clip0)">
<path d="M119.615 10.5542V281.446M181.181 59.8072H88.8314C77.4015 59.8072 66.4398 64.3477 58.3576 72.4299C50.2755 80.512 45.735 91.4737 45.735 102.904C45.735 114.333 50.2755 125.295 58.3576 133.377C66.4398 141.459 77.4015 146 88.8314 146H150.398C161.828 146 172.789 150.54 180.871 158.623C188.954 166.705 193.494 177.667 193.494 189.096C193.494 200.526 188.954 211.488 180.871 219.57C172.789 227.652 161.828 232.193 150.398 232.193H45.735" stroke="#85BB65" stroke-width="14" stroke-linecap="round" stroke-linejoin="round"/>
<path d="M0 0H239.229V21.1084H0V0Z" fill="#333333"/>
<path d="M0 270.892H239.229V292H0V270.892Z" fill="#333333"/>
<path d="M19.3494 21.1084L19.3494 270.892H8.79517L8.79518 21.1084H19.3494Z" fill="#333333"/>
<path d="M61.5663 21.1084L61.5663 270.892H51.012L51.012 21.1084H61.5663Z" fill="#333333"/>
<path d="M103.783 21.1084L103.783 270.892H93.2289L93.2289 21.1084H103.783Z" fill="#333333"/>
<path d="M146 21.1084L146 270.892H135.446L135.446 21.1084H146Z" fill="#333333"/>
<path d="M188.217 21.1084L188.217 270.892H177.663L177.663 21.1084H188.217Z" fill="#333333"/>
<path d="M230.434 21.1084V270.892H219.88L219.88 21.1084H230.434Z" fill="#333333"/>
</g>
<defs>
<clipPath id="clip0">
<rect width="239" height="292" fill="white"/>
</clipPath>
</defs>
</svg>
