<svg width="147" height="86" viewBox="0 0 147 86" fill="none" xmlns="http://www.w3.org/2000/svg">
<g clip-path="url(#clip0)">
<path d="M91.7915 85.1487C90.829 84.8971 90.0415 84.3294 90.0415 83.8871C90.0415 83.4447 90.829 82.4801 91.7915 81.7434C92.754 81.0067 93.2198 80.7857 92.8267 81.2524C92.4335 81.7191 92.5619 82.9418 93.1119 83.9694C93.6619 84.9971 93.9835 85.7857 93.8267 85.7219C93.6698 85.6581 92.754 85.4002 91.7915 85.1487ZM101.216 83.5236C98.7346 80.8825 98.4153 79.6605 100.406 80.4244C101.563 80.8684 104.582 85.838 103.694 85.838C103.527 85.838 102.412 84.7965 101.216 83.5236ZM3.76078 35.2507C1.11658 33.8167 0.876291 31.1775 3.48096 32.177C4.16197 32.4383 5.49184 31.344 6.43634 29.7452C7.3808 28.1464 8.46555 26.8577 8.84705 26.8815C9.22845 26.9053 12.0156 29.1503 15.0406 31.8705L20.5406 36.8162L13.5406 36.7872C9.25036 36.7694 5.46448 36.1746 3.76078 35.2507ZM7.08139 20.4217C-0.0540061 16.781 -1.03452 15.9968 0.814975 15.4097C2.48198 14.8806 4.56999 15.8286 9.52399 19.3637C13.108 21.9212 16.0404 24.1992 16.0404 24.4259C16.0404 25.0126 16.3527 25.1523 7.08139 20.4217ZM14.2189 17.5201C10.2029 13.4281 10.0742 13.1179 11.7607 11.5971C13.3105 10.1995 13.8634 10.1715 16.0404 11.3798C17.9348 12.4312 18.1164 12.776 16.7904 12.8028C14.9124 12.8408 14.5435 13.8556 15.8505 15.3882C16.7477 16.4405 19.1551 21.8382 18.7271 21.8382C18.5784 21.8382 16.5498 19.895 14.2189 17.5201Z" fill="black"/>
<path d="M76.3037 66.7638C75.0644 63.7818 73.4455 61.6011 72.1704 61.1964C70.6096 60.701 70.0743 59.7024 70.0743 57.2866C70.0743 54.8962 69.3406 53.4996 67.2873 51.9815C65.2258 50.4574 64.4344 48.9434 64.2474 46.1658C64.1083 44.1004 63.3883 40.9598 62.6474 39.1866C61.3579 36.1004 61.4942 35.6358 65.8368 28.3146L70.3732 20.6662H79.0494C87.1261 20.6662 87.8931 20.4852 90.1504 18.0466C92.9282 15.045 99.4784 10.6662 101.19 10.6662C101.826 10.6662 106.124 13.3685 110.741 16.6713L119.137 22.6764L124.856 22.0324C128.001 21.6783 131.924 20.7047 133.574 19.8688C135.224 19.0329 137.997 18.0267 139.737 17.6328C142.768 16.9461 142.925 17.0665 143.521 20.5414C143.863 22.5351 144.388 25.4037 144.688 26.9162C145.149 29.238 144.896 29.6662 143.066 29.6662C141.099 29.6662 140.96 30.0287 141.56 33.5819C142.086 36.6922 141.59 39.002 139.148 44.8128C137.458 48.8363 136.075 52.6459 136.075 53.2785C136.075 53.9112 138.1 54.9386 140.575 55.5618C144.533 56.5585 145.075 57.0243 145.08 59.4305C145.083 60.9351 145.566 63.8958 146.153 66.0099C146.74 68.124 147.028 70.0458 146.794 70.2806C146.559 70.5153 143.28 68.9038 139.508 66.6995C132.817 62.7893 132.479 62.7061 125.612 63.2838C120.264 63.7338 118.148 64.3658 116.796 65.9175C115.177 67.7757 114.248 67.9049 106.456 67.355C98.9119 66.8227 97.1194 67.0428 91.3658 69.2085C87.7746 70.5602 83.375 71.6661 81.5888 71.6661C78.644 71.6661 78.1509 71.2087 76.3037 66.7638ZM93.3937 61.7345C96.2786 60.6377 96.5588 59.9806 95.1152 57.6981C94.3058 56.4183 93.5713 56.4509 89.3805 57.953C86.737 58.9005 83.7866 59.6735 82.8241 59.6708C81.0487 59.6658 80.4539 61.7023 81.8241 63.0947C82.7089 63.9939 89.5736 63.1867 93.3937 61.7345ZM114.574 54.6659C117.721 50.125 121.161 49.3119 129.157 51.2191C131.15 51.6947 131.74 51.4535 131.74 50.1625C131.74 47.8211 127.642 46.4499 124.678 47.7999C123.04 48.5466 121.722 48.5685 120.473 47.8696C119.065 47.0815 117.121 47.6236 111.864 50.2714C106.213 53.1171 105.073 54.1085 105.073 56.1784C105.073 58.3354 105.52 58.6658 108.437 58.6658C111.233 58.6658 112.27 57.9905 114.574 54.6659ZM90.3107 55.0434C93.3157 53.4894 93.6594 52.6514 91.9803 50.9723C91.287 50.2791 89.7313 50.1724 87.7303 50.6809C85.9943 51.1221 82.8864 51.7696 80.8239 52.1198C77.1897 52.7369 75.7884 55.0471 77.8176 57.0763C78.8428 58.1015 86.9475 56.7826 90.3107 55.0434ZM85.3957 48.0719C87.9926 47.1871 90.0738 45.8524 90.0738 45.0719C90.0738 43.3872 90.3935 43.404 84.0851 44.7569C80.3138 45.5657 78.6401 45.5508 77.6142 44.6995C75.8207 43.211 72.0737 45.3799 72.0737 47.9065C72.0737 50.2241 78.833 50.308 85.3957 48.0719ZM113.574 44.5752C117.492 41.6019 117.739 41.5537 125.68 42.2093C133.602 42.8633 133.8 42.8251 134.416 40.5222C135.98 34.6788 135.959 34.666 124.574 34.666C116.88 34.666 114.054 34.3319 114 33.416C113.893 31.6076 113.069 27.3088 112.802 27.1643C112.677 27.0965 109.533 24.9063 105.816 22.297L99.0577 17.5529L91.6573 24.2554C85.1353 30.1623 84.2058 31.4451 83.8265 35.0624C83.5897 37.3196 83.5468 39.352 83.7312 39.5789C83.9155 39.8058 85.1932 39.4779 86.5705 38.8503C88.4385 37.9992 89.0747 36.9418 89.0747 34.688C89.0747 31.92 89.3592 31.6665 92.4663 31.6665C95.3211 31.6665 95.9744 31.2313 96.5942 28.9165C97.3112 26.2384 97.3915 26.3027 99.665 31.3753C101.58 35.6479 101.814 37.1171 100.965 39.5508C100.143 41.9088 100.277 43.0459 101.618 45.092C103.965 48.675 108.426 48.4824 113.575 44.5758L113.574 44.5752ZM75.6007 38.6221C75.9555 38.048 75.7418 36.9711 75.1259 36.2289C74.2489 35.1722 75.0181 34.0143 78.6719 30.8911C83.9619 26.3693 83.9039 24.4638 78.5131 25.6796C76.2683 26.1859 73.6819 27.9114 71.5494 30.3255C68.0484 34.2887 67.6439 35.3827 68.6806 38.0842C69.3643 39.8659 74.5814 40.2714 75.6007 38.6221Z" fill="black"/>
<path d="M62.2045 0.166161C59.3031 1.455 56.5519 6.63808 53.4964 16.5746C52.7522 18.986 52.2411 20.7738 51.0271 25.2223C50.1627 28.3959 47.5639 29.7909 47.5 29.6662C47.4587 29.583 47.8721 28.0659 47.5 26.6662C43.2004 10.4379 42.1348 2.924 38.9063 0.734362C36.8016 -0.693064 34.618 0.207737 32.6336 3.31204C29.3074 8.52284 26.8719 19.4849 26.1917 32.3179C26.0376 35.1866 26 36.7249 26 40.1479C26 45.5805 26.203 50.1122 26.6615 54.9072C27.9318 68.2668 30.9648 77.455 34.7946 79.5615C37.1774 80.8781 39.8196 79.2012 42.1498 74.9189C43.0631 73.242 43.8335 71.4543 44.7919 68.8073C45.9984 65.4951 44.602 61.8365 46.5 54.9072C47.1615 52.482 47.4737 51.6662 47.5 51.6662C47.5301 51.6662 48.9337 52.5575 49.2231 53.6662C49.8695 56.1468 52.8386 61.3514 53.5076 63.5549C53.7602 64.385 55.4338 66.9231 55 68.8073C54.2364 72.1235 50.5 75 51 75.5C51.5 76 55.5 75 56 75.5C56.182 75.682 61.0087 79.2329 61.8738 79.6724C62.0918 79.7832 62.6029 79.8387 63.1892 79.8387C63.9898 79.8387 64.2378 79.7832 64.6926 79.5199C67.1355 78.1341 69.2215 74.2676 70.9278 67.9897C71.4503 66.0629 68.9915 64.1104 67.4358 60.6662C66.5663 58.741 66.9779 55.3183 65.9358 53.6662C64.2148 50.9375 62.9358 50.1662 62.4358 49.1662C61.3178 46.9301 62.3462 44.6662 61.4358 41.3387C60.7661 38.8909 59.5185 38.3419 59.4358 36.1662C59.318 33.0406 62.4358 30.1662 64.4358 26.6662C65.9289 24.4265 67.4388 22.1232 69 20C70.5757 17.8572 71.8636 16 71.8636 14.2741C71.5066 12.5002 70.7586 9.67309 70.2663 8.24567C68.8982 4.2267 67.1205 1.51044 65.0872 0.346325C64.4408 -0.0139965 62.8547 -0.124868 62.2045 0.166161ZM38.4102 16.7825C39.673 17.7665 40.9509 20.0115 42.2062 23.4484C42.6534 24.668 43.3224 26.6913 43.7584 28.1465C44.3071 29.9897 44.7919 39.9262 44.7919 40.0648C44.7919 40.2865 44.6604 49.0589 44.0778 50.9853C42.2287 57.0553 40.5187 60.8941 38.9101 62.6126C38.1509 63.4164 37.7036 63.6381 36.7866 63.6381C36.0725 63.6381 35.9034 63.5965 35.5313 63.3193C33.3138 61.6702 31.6902 56.3347 30.9836 48.3937C30.3823 41.6169 30.495 35.1866 31.3219 29.1997C32.269 22.3259 33.9753 17.7803 36.08 16.5192C36.3168 16.3806 36.6287 16.339 37.1812 16.3806C37.8276 16.4222 38.0268 16.4915 38.4102 16.7825ZM63.1892 16.7825C64.4182 17.42 61.5824 20.3387 61 22.8387C59.6846 28.4851 52.4961 32.8296 52 41.3387C51.4964 50.0002 65.3077 59.2272 63 61.5C62.4438 62.0405 61.6577 63.6381 61 63.6381C59.8349 63.6381 59.1689 63.1204 58 61C56.771 58.7826 51.4846 56.7938 50 51.6662C49.0679 48.451 48.0113 40.374 48 40.1662C47.9887 39.9444 49.7408 33.7438 50.5 31.1662C53.0632 22.4353 57.3239 17.6417 59.5 16.5192C59.9886 16.2697 62.7082 16.533 63.1892 16.7825Z" fill="black"/>
</g>
<defs>
<clipPath id="clip0">
<rect width="147" height="86" fill="white"/>
</clipPath>
</defs>
</svg>
